<?xml version="1.0" ?><!DOCTYPE svg  PUBLIC '-//W3C//DTD SVG 1.1//EN'  'http://www.w3.org/Graphics/SVG/1.1/DTD/svg11.dtd'><svg height="512px" style="enable-background:new 0 0 512 512;" version="1.1" viewBox="0 0 512 512" width="512px" xml:space="preserve" xmlns="http://www.w3.org/2000/svg" xmlns:xlink="http://www.w3.org/1999/xlink"><g id="google_drive__x2C_"><g><path d="M492.871,374.948c0,65.451-53.089,118.502-118.565,118.502H137.168    c-65.497,0-118.566-53.051-118.566-118.502V138.009c0-65.451,53.069-118.483,118.566-118.483h237.137    c65.477,0,118.565,53.032,118.565,118.483V374.948z" style="fill:#0078E6;"/><polygon points="210.139,315.727 169.165,381.235 166.732,384.841 171.615,384.841 358.887,384.841     360.545,384.841 361.356,383.646 403.947,315.727   " style="fill:#FFFFFF;"/><polygon points="307.883,129.543 307.053,128.136 305.412,128.154 224.535,128.463 219.652,128.502     222.084,132.667 315.736,292.548 316.566,293.955 318.207,293.955 399.063,293.627 403.947,293.608 401.496,289.442   " style="fill:#FFFFFF;"/><polygon points="248.464,211.27 247.614,209.862 206.897,140.979 204.427,136.833 201.995,140.998     108.356,300.878 107.526,302.285 108.376,303.674 149.095,372.577 151.545,376.742 153.996,372.577 247.634,212.678   " style="fill:#FFFFFF;"/><polygon points="210.139,315.727 169.165,381.235 166.732,384.841 171.615,384.841 358.887,384.841     360.545,384.841 361.356,383.646 403.947,315.727   " style="fill:#FFFFFF;"/><polygon points="307.883,129.543 307.053,128.136 305.412,128.154 224.535,128.463 219.652,128.502     222.084,132.667 315.736,292.548 316.566,293.955 318.207,293.955 399.063,293.627 403.947,293.608 401.496,289.442   " style="fill:#FFFFFF;"/><polygon points="248.464,211.27 247.614,209.862 206.897,140.979 204.427,136.833 201.995,140.998     108.356,300.878 107.526,302.285 108.376,303.674 149.095,372.577 151.545,376.742 153.996,372.577 247.634,212.678   " style="fill:#FFFFFF;"/><path d="M403.947,315.727h0.005 M403.947,315.727l-42.591,67.919l-0.812,1.195h-1.658H171.615h-4.883    l2.432-3.605l40.974-65.509H403.947 M403.952,305.85h-0.005H210.139c-3.404,0-6.569,1.753-8.374,4.64l-40.883,65.363l-2.337,3.465    c-2.042,3.027-2.248,6.936-0.533,10.16c1.715,3.225,5.069,5.24,8.721,5.24h4.883h187.271h1.658c3.272,0,6.333-1.621,8.172-4.329    l0.812-1.195c0.067-0.099,0.133-0.199,0.196-0.301l42.472-67.729c1.03-1.56,1.631-3.428,1.631-5.437    C413.827,310.271,409.407,305.85,403.952,305.85L403.952,305.85z M307.053,128.136l0.83,1.407l93.613,159.899l2.451,4.166    l-4.884,0.019l-80.856,0.328h-1.641l-0.83-1.407l-93.652-159.88l-2.432-4.166l4.882-0.039l80.877-0.309L307.053,128.136     M307.054,118.259c-0.038,0-0.075,0-0.112,0l-1.604,0.018l-80.841,0.309l-4.923,0.039c-3.523,0.028-6.765,1.931-8.507,4.993    c-1.742,3.063-1.721,6.821,0.055,9.864l2.432,4.166l93.66,159.893l0.846,1.434c1.775,3.011,5.011,4.858,8.507,4.858h1.641    l80.896-0.328l4.881-0.019c3.537-0.014,6.796-1.917,8.546-4.99s1.724-6.848-0.07-9.896l-2.451-4.166l-93.603-159.881l-0.847-1.435    C313.783,120.104,310.546,118.259,307.054,118.259L307.054,118.259z M204.427,136.833l2.47,4.146l40.717,68.883l0.85,1.407    l-0.83,1.408l-93.638,159.899l-2.45,4.165l-2.451-4.165l-40.719-68.903l-0.85-1.389l0.83-1.407l93.638-159.88L204.427,136.833     M204.427,126.956c-0.015,0-0.029,0-0.043,0c-3.496,0.016-6.723,1.877-8.486,4.896l-2.432,4.165L99.833,295.887l-0.814,1.38    c-1.855,3.146-1.824,7.059,0.082,10.173l0.811,1.326l40.679,68.837l2.441,4.148c1.775,3.017,5.013,4.868,8.513,4.868h0    c3.5,0,6.738-1.853,8.513-4.869l2.45-4.165l93.648-159.916l0.816-1.384c1.844-3.127,1.823-7.013-0.053-10.121l-0.826-1.368    l-40.694-68.843l-2.487-4.176C211.13,128.787,207.906,126.956,204.427,126.956L204.427,126.956z M364.039,478.061H147.415    c-62.448,0-113.253-50.818-113.253-113.283V148.179c0-62.454,50.805-113.263,113.253-113.263h216.624    c62.459,0,113.272,50.81,113.272,113.263v216.599C477.312,427.242,426.498,478.061,364.039,478.061z M147.415,44.818    c-56.988,0-103.351,46.367-103.351,103.36v216.599c0,57.004,46.363,103.381,103.351,103.381h216.624    c56.998,0,103.37-46.377,103.37-103.381V148.179c0-56.993-46.372-103.36-103.37-103.36H147.415z" style="fill:#003C73;"/></g></g><g id="Layer_1"/></svg>