<?xml version="1.0" ?><!DOCTYPE svg  PUBLIC '-//W3C//DTD SVG 1.1//EN'  'http://www.w3.org/Graphics/SVG/1.1/DTD/svg11.dtd'><svg height="512px" style="enable-background:new 0 0 512 512;" version="1.1" viewBox="0 0 512 512" width="512px" xml:space="preserve" xmlns="http://www.w3.org/2000/svg" xmlns:xlink="http://www.w3.org/1999/xlink"><g id="paypal__x2C__payment_method__x2C__money__x2C__payment__x2C_"><g><path d="M492.871,374.948c0,65.451-53.089,118.502-118.565,118.502H137.168    c-65.497,0-118.566-53.051-118.566-118.502V138.009c0-65.451,53.069-118.483,118.566-118.483h237.137    c65.477,0,118.565,53.032,118.565,118.483V374.948z" style="fill:#005D83;"/><path d="M184.988,108.389c-7.266,0-13.46,5.303-14.58,12.496L127.403,394.33    c-0.868,5.379,3.31,10.258,8.742,10.258h50.783c7.266,0,13.44-5.302,14.589-12.516l11.617-73.761    c1.09-7.214,7.304-12.516,14.55-12.516h33.666c70.041,0,110.461-33.979,121.016-101.353c4.749-29.466,0.186-52.607-13.575-68.826    c-15.101-17.818-41.896-27.229-77.48-27.229H184.988z M303.573,208.262c-5.807,38.259-34.958,38.259-63.161,38.259h-16.036    l11.27-71.466c0.656-4.32,4.38-7.502,8.751-7.502h7.343c19.183,0,37.312,0,46.662,10.992    C303.998,185.082,305.707,194.82,303.573,208.262z" style="fill:#FFFFFF;"/><path d="M184.988,108.389c-7.266,0-13.46,5.303-14.58,12.496L127.403,394.33    c-0.868,5.379,3.31,10.258,8.742,10.258h50.783c7.266,0,13.44-5.302,14.589-12.516l11.617-73.761    c1.09-7.214,7.304-12.516,14.55-12.516h33.666c70.041,0,110.461-33.979,121.016-101.353c4.749-29.466,0.186-52.607-13.575-68.826    c-15.101-17.818-41.896-27.229-77.48-27.229H184.988z M303.573,208.262c-5.807,38.259-34.958,38.259-63.161,38.259h-16.036    l11.27-71.466c0.656-4.32,4.38-7.502,8.751-7.502h7.343c19.183,0,37.312,0,46.662,10.992    C303.998,185.082,305.707,194.82,303.573,208.262z" style="fill:#FFFFFF;"/><path d="M291.311,108.389c35.585,0,62.38,9.411,77.48,27.229c13.761,16.219,18.324,39.359,13.575,68.826    c-10.555,67.373-50.975,101.353-121.016,101.353h-33.666c-7.246,0-13.459,5.302-14.55,12.516l-11.617,73.761    c-1.149,7.214-7.324,12.516-14.589,12.516h-50.783c-5.432,0-9.61-4.879-8.742-10.258l43.005-273.445    c1.12-7.193,7.314-12.496,14.58-12.496H291.311 M224.376,246.521h16.036c28.203,0,57.354,0,63.161-38.259    c2.134-13.441,0.425-23.18-5.172-29.717c-9.35-10.992-27.479-10.992-46.662-10.992h-7.343c-4.371,0-8.096,3.182-8.751,7.502    L224.376,246.521 M291.311,98.512H184.988c-12.222,0-22.458,8.771-24.339,20.854l-43.003,273.43    c-0.869,5.38,0.674,10.89,4.238,15.075c3.568,4.19,8.766,6.594,14.261,6.594h50.783c12.183,0,22.42-8.764,24.343-20.839    l11.62-73.777c0.003-0.021,0.006-0.041,0.009-0.062c0.354-2.346,2.411-4.114,4.784-4.114h33.666    c37.222,0,67.22-9.326,89.16-27.719c21.977-18.423,35.978-46.006,41.613-81.982c5.222-32.395-0.093-58.23-15.802-76.745    C359.294,109.135,329.896,98.512,291.311,98.512L291.311,98.512z M245.27,177.429h6.47c16.84,0,32.747,0,39.138,7.515    c3.587,4.19,4.569,11.506,2.94,21.77c-0.004,0.022-0.007,0.044-0.011,0.066c-4.321,28.477-22.188,29.864-53.396,29.864h-4.479    L245.27,177.429L245.27,177.429z" style="fill:#002F42;"/><path d="M364.039,478.061H147.415c-62.448,0-113.253-50.818-113.253-113.283V148.179    c0-62.454,50.805-113.263,113.253-113.263h216.624c62.459,0,113.272,50.81,113.272,113.263v216.599    C477.312,427.242,426.498,478.061,364.039,478.061z M147.415,44.818c-56.988,0-103.351,46.367-103.351,103.36v216.599    c0,57.004,46.363,103.381,103.351,103.381h216.624c56.998,0,103.37-46.377,103.37-103.381V148.179    c0-56.993-46.372-103.36-103.37-103.36H147.415z" style="fill:#002F42;"/></g></g><g id="Layer_1"/></svg>