<?xml version="1.0" ?><!DOCTYPE svg  PUBLIC '-//W3C//DTD SVG 1.1//EN'  'http://www.w3.org/Graphics/SVG/1.1/DTD/svg11.dtd'><svg height="512px" style="enable-background:new 0 0 512 512;" version="1.1" viewBox="0 0 512 512" width="512px" xml:space="preserve" xmlns="http://www.w3.org/2000/svg" xmlns:xlink="http://www.w3.org/1999/xlink"><g id="google_plus__x2C_"><path d="M492.871,374.968c0,65.451-53.089,118.482-118.565,118.482H137.168   c-65.497,0-118.566-53.031-118.566-118.482V138.009c0-65.432,53.069-118.483,118.566-118.483h237.137   c65.477,0,118.565,53.051,118.565,118.483V374.968z" style="fill:#FF3A21;"/><path d="M334.165,307.492h12.737c3.416,0,6.176-2.758,6.176-6.171v-44.753h44.693   c3.397,0,6.176-2.777,6.176-6.19v-12.747c0-3.414-2.778-6.19-6.176-6.19h-44.693v-44.758c0-3.394-2.76-6.171-6.176-6.171h-12.737   c-3.416,0-6.194,2.777-6.194,6.171v44.758h-44.694c-3.395,0-6.174,2.777-6.174,6.19v12.747c0,3.413,2.779,6.19,6.174,6.19h44.694   v44.753C327.971,304.734,330.749,307.492,334.165,307.492z" style="fill:#FFFFFF;"/><path d="M158.106,385.439c11.309,2.873,23.467,4.339,36.091,4.339c11.348,0,22.155-1.485,32.151-4.377   c31.166-9.045,51.313-32.013,51.313-58.547c0-25.437-8.163-40.671-30.086-56.195c-9.397-6.667-17.947-16.425-18.102-19.433   c0-5.477,0.482-8.081,12.737-17.645c15.843-12.4,24.567-28.734,24.567-45.974c0-15.639-4.767-29.523-12.911-39.282h6.311   c1.312,0,2.586-0.405,3.628-1.157l17.58-12.767c2.18-1.562,3.105-4.358,2.258-6.904c-0.83-2.564-3.203-4.3-5.887-4.3h-78.619   c-8.606,0-17.354,1.504-25.922,4.474c-28.657,9.893-48.688,34.326-48.688,59.454c0,35.521,27.499,62.481,64.286,63.33   c-0.714,2.815-1.081,5.592-1.081,8.311c0,5.478,1.39,10.659,4.246,15.674c-0.348,0.02-0.656,0.02-1.023,0.02   c-35.05,0-66.698,17.22-78.701,42.85c-3.146,6.652-4.729,13.383-4.729,20.036c0,6.479,1.661,12.688,4.902,18.551   C119.994,369.414,136.204,379.904,158.106,385.439z M165.111,186.142c-1.697-13.017,1.023-24.703,7.507-32.108   c4.188-4.782,9.668-7.289,15.81-7.289l0.714,0.019c17.367,0.501,33.983,19.882,37.051,43.197   c1.718,13.056-1.177,25.32-7.738,32.822c-4.188,4.782-9.59,7.309-15.998,7.309c0,0,0,0-0.019,0h-0.271   C185.143,229.589,168.161,209.438,165.111,186.142z M198.521,294.147l0.714,0.02c5.828,0.058,11.501,0.926,16.866,2.564   c1.834,1.253,3.609,2.469,5.326,3.626c12.39,8.465,20.572,14.058,22.869,23.024c0.521,2.237,0.791,4.494,0.791,6.673   c0,23.064-17.175,34.75-51.043,34.75c-25.69,0-45.779-15.774-45.779-35.907C148.265,310.386,171.75,294.147,198.521,294.147z" style="fill:#FFFFFF;"/><path d="M334.165,307.492h12.737c3.416,0,6.176-2.758,6.176-6.171v-44.753h44.693   c3.397,0,6.176-2.777,6.176-6.19v-12.747c0-3.414-2.778-6.19-6.176-6.19h-44.693v-44.758c0-3.394-2.76-6.171-6.176-6.171h-12.737   c-3.416,0-6.194,2.777-6.194,6.171v44.758h-44.694c-3.395,0-6.174,2.777-6.174,6.19v12.747c0,3.413,2.779,6.19,6.174,6.19h44.694   v44.753C327.971,304.734,330.749,307.492,334.165,307.492z" style="fill:#FFFFFF;"/><path d="M158.106,385.439c11.309,2.873,23.467,4.339,36.091,4.339c11.348,0,22.155-1.485,32.151-4.377   c31.166-9.045,51.313-32.013,51.313-58.547c0-25.437-8.163-40.671-30.086-56.195c-9.397-6.667-17.947-16.425-18.102-19.433   c0-5.477,0.482-8.081,12.737-17.645c15.843-12.4,24.567-28.734,24.567-45.974c0-15.639-4.767-29.523-12.911-39.282h6.311   c1.312,0,2.586-0.405,3.628-1.157l17.58-12.767c2.18-1.562,3.105-4.358,2.258-6.904c-0.83-2.564-3.203-4.3-5.887-4.3h-78.619   c-8.606,0-17.354,1.504-25.922,4.474c-28.657,9.893-48.688,34.326-48.688,59.454c0,35.521,27.499,62.481,64.286,63.33   c-0.714,2.815-1.081,5.592-1.081,8.311c0,5.478,1.39,10.659,4.246,15.674c-0.348,0.02-0.656,0.02-1.023,0.02   c-35.05,0-66.698,17.22-78.701,42.85c-3.146,6.652-4.729,13.383-4.729,20.036c0,6.479,1.661,12.688,4.902,18.551   C119.994,369.414,136.204,379.904,158.106,385.439z M165.111,186.142c-1.697-13.017,1.023-24.703,7.507-32.108   c4.188-4.782,9.668-7.289,15.81-7.289l0.714,0.019c17.367,0.501,33.983,19.882,37.051,43.197   c1.718,13.056-1.177,25.32-7.738,32.822c-4.188,4.782-9.59,7.309-15.998,7.309c0,0,0,0-0.019,0h-0.271   C185.143,229.589,168.161,209.438,165.111,186.142z M198.521,294.147l0.714,0.02c5.828,0.058,11.501,0.926,16.866,2.564   c1.834,1.253,3.609,2.469,5.326,3.626c12.39,8.465,20.572,14.058,22.869,23.024c0.521,2.237,0.791,4.494,0.791,6.673   c0,23.064-17.175,34.75-51.043,34.75c-25.69,0-45.779-15.774-45.779-35.907C148.265,310.386,171.75,294.147,198.521,294.147z" style="fill:#FFFFFF;"/><path d="M346.902,180.511c3.416,0,6.176,2.777,6.176,6.171v44.758h44.693c3.397,0,6.176,2.777,6.176,6.19   v12.747c0,3.413-2.778,6.19-6.176,6.19h-44.693v44.753c0,3.413-2.76,6.171-6.176,6.171h-12.737c-3.416,0-6.194-2.758-6.194-6.171   v-44.753h-44.694c-3.395,0-6.174-2.777-6.174-6.19v-12.747c0-3.414,2.779-6.19,6.174-6.19h44.694v-44.758   c0-3.394,2.778-6.171,6.194-6.171H346.902 M346.902,170.634h-12.737c-8.861,0-16.071,7.199-16.071,16.048v34.881h-34.817   c-8.851,0-16.051,7.208-16.051,16.067v12.747c0,8.859,7.2,16.067,16.051,16.067h34.817v34.876c0,8.849,7.21,16.048,16.071,16.048   h12.737c8.852,0,16.053-7.199,16.053-16.048v-34.876h34.816c8.852,0,16.053-7.208,16.053-16.067v-12.747   c0-8.859-7.201-16.067-16.053-16.067h-34.816v-34.881C362.955,177.833,355.754,170.634,346.902,170.634L346.902,170.634z" style="fill:#BF2C19;"/><path d="M277.758,123.198c2.684,0,5.057,1.736,5.887,4.3c0.848,2.545-0.078,5.342-2.258,6.904l-17.58,12.767   c-1.042,0.751-2.316,1.157-3.628,1.157h-6.311c8.144,9.758,12.911,23.643,12.911,39.282c0,17.24-8.724,33.574-24.567,45.974   c-12.254,9.564-12.737,12.168-12.737,17.645c0.155,3.008,8.704,12.766,18.102,19.433c21.923,15.524,30.086,30.759,30.086,56.195   c0,26.534-20.147,49.502-51.313,58.547c-9.996,2.892-20.804,4.377-32.151,4.377c-12.625,0-24.783-1.466-36.091-4.339   c-21.902-5.535-38.113-16.025-45.678-29.544c-3.242-5.862-4.902-12.072-4.902-18.551c0-6.653,1.583-13.384,4.729-20.036   c12.003-25.63,43.651-42.85,78.701-42.85c0.368,0,0.675,0,1.023-0.02c-2.856-5.015-4.246-10.196-4.246-15.674   c0-2.719,0.367-5.496,1.081-8.311c-36.787-0.849-64.286-27.808-64.286-63.33c0-25.127,20.032-49.561,48.688-59.454   c8.568-2.97,17.315-4.474,25.922-4.474H277.758 M202.168,230.091h0.271c0.019,0,0.019,0,0.019,0c6.408,0,11.81-2.527,15.998-7.309   c6.562-7.502,9.456-19.766,7.738-32.822c-3.068-23.314-19.684-42.695-37.051-43.197l-0.714-0.019   c-6.142,0-11.622,2.507-15.81,7.289c-6.484,7.405-9.205,19.091-7.507,32.108C168.161,209.438,185.143,229.589,202.168,230.091    M194.044,364.805c33.868,0,51.043-11.686,51.043-34.75c0-2.179-0.27-4.436-0.791-6.673c-2.297-8.967-10.479-14.56-22.869-23.024   c-1.717-1.157-3.492-2.373-5.326-3.626c-5.365-1.639-11.039-2.507-16.866-2.564l-0.714-0.02c-26.771,0-50.256,16.238-50.256,34.75   C148.265,349.03,168.354,364.805,194.044,364.805 M277.758,113.321h-78.619c-9.74,0-19.549,1.688-29.157,5.018   c-15.783,5.449-29.444,14.817-39.496,27.087c-10.211,12.464-15.834,27.273-15.834,41.699c0,37.223,26.509,66.699,63.21,72.276   c0.03,1.978,0.202,3.935,0.515,5.867c-33.689,3.691-62.956,21.993-75.066,47.851c-3.751,7.932-5.661,16.094-5.661,24.226   c0,8.118,2.064,15.968,6.136,23.33c8.929,15.956,27.353,28.137,51.901,34.341c12.114,3.077,25.076,4.64,38.511,4.64   c12.223,0,23.964-1.604,34.896-4.766c35.508-10.306,58.445-37.01,58.445-68.035c0-28.784-9.604-46.8-34.255-64.256   c-6.46-4.583-11.882-10.41-13.827-13.176c0.346-0.619,1.902-2.647,8.831-8.055c18.296-14.32,28.367-33.409,28.367-53.76   c0-11.793-2.407-22.935-6.926-32.533l17.441-12.666c5.705-4.108,8.057-11.326,5.859-17.986   C290.864,117.781,284.731,113.321,277.758,113.321L277.758,113.321z M202.336,220.214c-10.847-0.431-24.842-15.58-27.431-35.354   c-1.311-10.05,0.612-19.144,5.145-24.319c2.283-2.607,4.988-3.89,8.266-3.918l0.564,0.015   c12.271,0.354,25.142,16.528,27.521,34.612c1.332,10.123-0.73,19.714-5.38,25.031c-2.349,2.682-5.072,3.934-8.563,3.934H202.336   L202.336,220.214z M194.044,354.928c-20.132,0-35.902-11.434-35.902-26.03c0-11.48,17.57-24.822,40.249-24.873l0.575,0.016   c0.058,0.002,0.115,0.003,0.172,0.004c4.366,0.043,8.63,0.626,12.697,1.734c1.382,0.944,2.73,1.864,4.045,2.751   c11.412,7.797,17.461,12.127,18.824,17.209c0.336,1.48,0.507,2.932,0.507,4.316C235.21,336.857,235.21,354.928,194.044,354.928   L194.044,354.928z" style="fill:#BF2C19;"/><path d="M364.039,478.061H147.415c-62.448,0-113.253-50.818-113.253-113.283V148.179   c0-62.454,50.805-113.263,113.253-113.263h216.624c62.459,0,113.272,50.81,113.272,113.263v216.599   C477.312,427.242,426.498,478.061,364.039,478.061z M147.415,44.818c-56.988,0-103.351,46.367-103.351,103.36v216.599   c0,57.004,46.363,103.381,103.351,103.381h216.624c56.998,0,103.37-46.377,103.37-103.381V148.179   c0-56.993-46.372-103.36-103.37-103.36H147.415z" style="fill:#BF2C19;"/></g><g id="Layer_1"/></svg>