<?xml version="1.0" ?><!DOCTYPE svg  PUBLIC '-//W3C//DTD SVG 1.1//EN'  'http://www.w3.org/Graphics/SVG/1.1/DTD/svg11.dtd'><svg height="512px" style="enable-background:new 0 0 512 512;" version="1.1" viewBox="0 0 512 512" width="512px" xml:space="preserve" xmlns="http://www.w3.org/2000/svg" xmlns:xlink="http://www.w3.org/1999/xlink"><g id="Wordpress__x2C_"><g><path d="M492.871,374.968c0,65.451-53.089,118.482-118.565,118.482H137.168    c-65.497,0-118.566-53.031-118.566-118.482V138.009c0-65.432,53.069-118.483,118.566-118.483h237.137    c65.477,0,118.565,53.051,118.565,118.483V374.968z" style="fill:#454240;"/><path d="M321.24,123.912c-17.154-8.909-35.603-13.672-54.921-14.945c-0.964-0.059-1.929-0.367-2.876-0.579    c-5.133,0-10.266,0-15.399,0c-4.67,0.598-9.397,1.061-14.048,1.813c-49.88,8.312-86.604,35.001-110.282,79.509    c-9.302,17.529-14.281,36.409-15.593,56.213c-0.077,0.984-0.386,1.929-0.579,2.873c0,5.13,0,10.259,0,15.408    c0.579,4.565,1.023,9.155,1.775,13.687c8.336,50.467,35.412,87.455,80.641,111.078c17.233,8.967,35.779,13.769,55.211,15.061    c0.965,0.058,1.911,0.386,2.875,0.559c5.133,0,10.267,0,15.399,0c4.573-0.578,9.187-1.003,13.721-1.773    c50.252-8.272,87.169-35.136,110.867-80.068c9.147-17.355,14.028-36.08,15.322-55.693c0.076-0.964,0.406-1.908,0.579-2.849    c0-5.148,0-10.277,0-15.408c-0.579-4.57-1.004-9.179-1.756-13.71C393.802,184.503,366.649,147.478,321.24,123.912z     M196.789,376.087c-29.192-14.83-50.825-37.045-63.658-67.303c-14.957-35.289-14.3-70.728,0.424-105.903    c0.271,0,0.541,0.02,0.83,0.02c21.035,57.582,42.069,115.159,63.08,172.742C197.252,375.777,197.021,375.951,196.789,376.087z     M217.94,384.301c13.314-38.646,26.534-77.001,39.732-115.357c0.271-0.038,0.542-0.038,0.811-0.038    c13.741,37.622,27.481,75.208,41.415,113.352C272.803,391.553,245.749,392.228,217.94,384.301z M322.148,337.268    c-16.172-48.095-32.13-95.451-48.188-143.219c4.033-0.347,7.721-0.675,11.405-1.022c1.37-0.096,2.76-0.212,4.11-0.482    c3.203-0.578,4.939-2.777,4.69-5.747c-0.29-3.085-2.49-4.994-5.943-4.821c-7.701,0.405-15.401,1.273-23.081,1.234    c-14.493-0.058-29.005-0.617-43.498-0.984c-1.37-0.038-2.759-0.289-4.129-0.25c-3.03,0.077-4.96,1.986-5.23,4.976    c-0.27,3.008,1.274,5.129,4.4,5.554c3.706,0.52,7.449,0.944,11.174,1.099c2.257,0.096,3.492,0.732,4.303,3.046    c6.195,17.24,12.563,34.422,18.777,51.644c0.482,1.292,0.771,2.988,0.348,4.223c-9.244,27.957-18.584,55.88-27.924,83.823    c-0.116,0.386-0.27,0.714-1.1,1.253c-16.056-47.67-32.093-95.374-48.297-143.584c4.168-0.347,7.757-0.656,11.385-0.983    c1.177-0.077,2.349-0.154,3.526-0.366c3.898-0.655,5.538-2.604,5.172-6.171c-0.347-3.104-2.547-4.705-6.445-4.493    c-7.869,0.424-15.761,1.061-23.655,1.369c-6.271,0.212-12.563,0.039-19.741,0.039c19.395-28.367,44.862-47.42,77.611-55.693    c46.143-11.667,87.169-0.81,124.065,30.237c-2.142,0.251-3.416,0.366-4.708,0.579c-12.466,2.063-20.958,13.769-19.278,26.265    c0.83,6.094,3.087,11.609,6.098,16.854c3.184,5.573,6.581,10.992,9.669,16.623c8.799,16.16,10.4,33.092,5.189,50.673    c-6.598,22.177-13.313,44.334-19.991,66.511C322.786,335.782,322.61,336.091,322.148,337.268z M387.724,275.249    c-6.313,41.943-28.351,73.647-63.992,96.056c-0.291-0.155-0.56-0.271-0.83-0.425c0.676-2.025,1.35-4.069,2.046-6.075    c12.659-36.582,25.222-73.183,38.035-109.702c3.667-10.51,7.392-21,9.108-32.05c1.506-9.719,1.68-19.419,0.984-29.235    C386.913,219.35,392.046,246.58,387.724,275.249z" style="fill:#FFFFFF;"/><path d="M321.24,123.912c-17.154-8.909-35.603-13.672-54.921-14.945c-0.964-0.059-1.929-0.367-2.876-0.579    c-5.133,0-10.266,0-15.399,0c-4.67,0.598-9.397,1.061-14.048,1.813c-49.88,8.312-86.604,35.001-110.282,79.509    c-9.302,17.529-14.281,36.409-15.593,56.213c-0.077,0.984-0.386,1.929-0.579,2.873c0,5.13,0,10.259,0,15.408    c0.579,4.565,1.023,9.155,1.775,13.687c8.336,50.467,35.412,87.455,80.641,111.078c17.233,8.967,35.779,13.769,55.211,15.061    c0.965,0.058,1.911,0.386,2.875,0.559c5.133,0,10.267,0,15.399,0c4.573-0.578,9.187-1.003,13.721-1.773    c50.252-8.272,87.169-35.136,110.867-80.068c9.147-17.355,14.028-36.08,15.322-55.693c0.076-0.964,0.406-1.908,0.579-2.849    c0-5.148,0-10.277,0-15.408c-0.579-4.57-1.004-9.179-1.756-13.71C393.802,184.503,366.649,147.478,321.24,123.912z     M196.789,376.087c-29.192-14.83-50.825-37.045-63.658-67.303c-14.957-35.289-14.3-70.728,0.424-105.903    c0.271,0,0.541,0.02,0.83,0.02c21.035,57.582,42.069,115.159,63.08,172.742C197.252,375.777,197.021,375.951,196.789,376.087z     M217.94,384.301c13.314-38.646,26.534-77.001,39.732-115.357c0.271-0.038,0.542-0.038,0.811-0.038    c13.741,37.622,27.481,75.208,41.415,113.352C272.803,391.553,245.749,392.228,217.94,384.301z M322.148,337.268    c-16.172-48.095-32.13-95.451-48.188-143.219c4.033-0.347,7.721-0.675,11.405-1.022c1.37-0.096,2.76-0.212,4.11-0.482    c3.203-0.578,4.939-2.777,4.69-5.747c-0.29-3.085-2.49-4.994-5.943-4.821c-7.701,0.405-15.401,1.273-23.081,1.234    c-14.493-0.058-29.005-0.617-43.498-0.984c-1.37-0.038-2.759-0.289-4.129-0.25c-3.03,0.077-4.96,1.986-5.23,4.976    c-0.27,3.008,1.274,5.129,4.4,5.554c3.706,0.52,7.449,0.944,11.174,1.099c2.257,0.096,3.492,0.732,4.303,3.046    c6.195,17.24,12.563,34.422,18.777,51.644c0.482,1.292,0.771,2.988,0.348,4.223c-9.244,27.957-18.584,55.88-27.924,83.823    c-0.116,0.386-0.27,0.714-1.1,1.253c-16.056-47.67-32.093-95.374-48.297-143.584c4.168-0.347,7.757-0.656,11.385-0.983    c1.177-0.077,2.349-0.154,3.526-0.366c3.898-0.655,5.538-2.604,5.172-6.171c-0.347-3.104-2.547-4.705-6.445-4.493    c-7.869,0.424-15.761,1.061-23.655,1.369c-6.271,0.212-12.563,0.039-19.741,0.039c19.395-28.367,44.862-47.42,77.611-55.693    c46.143-11.667,87.169-0.81,124.065,30.237c-2.142,0.251-3.416,0.366-4.708,0.579c-12.466,2.063-20.958,13.769-19.278,26.265    c0.83,6.094,3.087,11.609,6.098,16.854c3.184,5.573,6.581,10.992,9.669,16.623c8.799,16.16,10.4,33.092,5.189,50.673    c-6.598,22.177-13.313,44.334-19.991,66.511C322.786,335.782,322.61,336.091,322.148,337.268z M387.724,275.249    c-6.313,41.943-28.351,73.647-63.992,96.056c-0.291-0.155-0.56-0.271-0.83-0.425c0.676-2.025,1.35-4.069,2.046-6.075    c12.659-36.582,25.222-73.183,38.035-109.702c3.667-10.51,7.392-21,9.108-32.05c1.506-9.719,1.68-19.419,0.984-29.235    C386.913,219.35,392.046,246.58,387.724,275.249z" style="fill:#FFFFFF;"/><path d="M263.443,108.389c0.947,0.212,1.912,0.52,2.876,0.579c19.318,1.272,37.767,6.036,54.921,14.945    c45.409,23.565,72.562,60.591,80.937,111.174c0.752,4.532,1.177,9.141,1.756,13.71c0,5.13,0,10.259,0,15.408    c-0.173,0.94-0.503,1.885-0.579,2.849c-1.294,19.613-6.175,38.338-15.322,55.693c-23.698,44.933-60.615,71.796-110.867,80.068    c-4.534,0.771-9.147,1.195-13.721,1.773c-5.133,0-10.266,0-15.399,0c-0.964-0.173-1.91-0.501-2.875-0.559    c-19.433-1.292-37.978-6.094-55.211-15.061c-45.229-23.623-72.305-60.611-80.641-111.078c-0.752-4.531-1.196-9.121-1.775-13.687    c0-5.148,0-10.277,0-15.408c0.193-0.944,0.502-1.889,0.579-2.873c1.312-19.805,6.291-38.684,15.593-56.213    c23.678-44.508,60.402-71.197,110.282-79.509c4.651-0.752,9.378-1.215,14.048-1.813    C253.177,108.389,258.311,108.389,263.443,108.389 M156.759,183.471c2.431,0,4.813-0.025,7.19-0.105    c7.894-0.309,15.786-0.945,23.655-1.369c0.229-0.012,0.452-0.019,0.669-0.019c3.481,0,5.45,1.59,5.776,4.512    c0.366,3.567-1.273,5.516-5.172,6.171c-1.177,0.212-2.349,0.289-3.526,0.366c-3.628,0.328-7.217,0.636-11.385,0.983    c16.205,48.211,32.242,95.915,48.297,143.584c0.83-0.539,0.984-0.867,1.1-1.253c9.34-27.942,18.681-55.866,27.924-83.823    c0.424-1.235,0.135-2.931-0.348-4.223c-6.213-17.221-12.582-34.403-18.777-51.644c-0.811-2.314-2.045-2.95-4.303-3.046    c-3.725-0.155-7.469-0.579-11.174-1.099c-3.125-0.425-4.67-2.546-4.4-5.554c0.271-2.989,2.2-4.898,5.23-4.976    c0.097-0.003,0.194-0.004,0.292-0.004c1.275,0,2.564,0.219,3.837,0.254c14.493,0.367,29.005,0.926,43.498,0.984    c0.166,0.001,0.332,0.001,0.499,0.001c7.514,0,15.048-0.839,22.582-1.236c0.146-0.007,0.288-0.011,0.429-0.011    c3.206,0,5.236,1.876,5.515,4.832c0.249,2.97-1.487,5.168-4.69,5.747c-1.351,0.271-2.74,0.386-4.11,0.482    c-3.685,0.347-7.372,0.675-11.405,1.022c16.058,47.768,32.016,95.124,48.188,143.219c0.462-1.177,0.638-1.485,0.714-1.813    c6.678-22.177,13.394-44.334,19.991-66.511c5.211-17.582,3.609-34.513-5.189-50.673c-3.088-5.631-6.485-11.05-9.669-16.623    c-3.011-5.245-5.268-10.761-6.098-16.854c-1.68-12.496,6.813-24.202,19.278-26.265c1.292-0.212,2.566-0.328,4.708-0.579    c-27.211-22.897-56.661-34.813-88.76-34.811c-11.426,0-23.193,1.511-35.306,4.574c-32.749,8.273-58.216,27.326-77.611,55.693    C148.665,183.404,152.778,183.471,156.759,183.471 M323.731,371.305c35.642-22.408,57.68-54.112,63.992-96.056    c4.322-28.669-0.811-55.899-14.648-81.431c0.695,9.815,0.521,19.516-0.984,29.235c-1.717,11.05-5.441,21.541-9.108,32.05    c-12.813,36.519-25.376,73.12-38.035,109.702c-0.696,2.006-1.37,4.05-2.046,6.075C323.172,371.033,323.44,371.149,323.731,371.305     M196.789,376.087c0.232-0.136,0.464-0.31,0.676-0.444c-21.011-57.583-42.045-115.16-63.08-172.742c-0.29,0-0.559-0.02-0.83-0.02    c-14.724,35.175-15.38,70.614-0.424,105.903C145.964,339.042,167.597,361.257,196.789,376.087 M255.958,389.777    c14.717,0,29.324-2.506,43.94-7.521c-13.934-38.144-27.674-75.729-41.415-113.352c-0.269,0-0.539,0-0.811,0.038    c-13.199,38.356-26.418,76.712-39.732,115.357C230.748,387.951,243.393,389.777,255.958,389.777 M263.443,98.512h-15.399    c-0.419,0-0.838,0.027-1.254,0.08c-1.472,0.188-2.95,0.363-4.429,0.538c-3.235,0.382-6.58,0.778-9.942,1.321    c-52.735,8.787-92.227,37.255-117.425,84.62c-9.624,18.135-15.244,38.298-16.712,59.942c-0.029,0.133-0.082,0.351-0.123,0.52    c-0.105,0.43-0.208,0.859-0.295,1.287c-0.133,0.651-0.2,1.313-0.2,1.977v15.408c0,0.416,0.026,0.831,0.079,1.243    c0.172,1.36,0.333,2.724,0.493,4.087c0.381,3.241,0.775,6.592,1.337,9.975c8.804,53.297,37.676,93.073,85.812,118.215    c17.829,9.276,37.649,14.707,58.926,16.147c0.123,0.027,0.246,0.059,0.37,0.089c0.438,0.104,0.983,0.235,1.621,0.35    c0.575,0.104,1.158,0.155,1.742,0.155h15.399c0.414,0,0.828-0.026,1.238-0.078c1.375-0.174,2.753-0.333,4.131-0.492    c3.242-0.376,6.595-0.764,9.982-1.339c53.074-8.745,92.767-37.411,117.973-85.202c9.44-17.911,14.964-37.872,16.421-59.338    c0.028-0.128,0.063-0.256,0.094-0.384c0.11-0.444,0.246-0.997,0.364-1.642c0.108-0.59,0.163-1.188,0.163-1.786v-15.408    c0-0.415-0.026-0.83-0.078-1.242c-0.182-1.431-0.347-2.866-0.513-4.301c-0.368-3.18-0.748-6.467-1.298-9.785    c-8.85-53.446-37.828-93.257-86.131-118.324c-17.741-9.214-37.47-14.604-58.641-16.022c-0.141-0.031-0.368-0.088-0.544-0.132    c-0.337-0.084-0.672-0.167-1.006-0.241C264.892,98.592,264.169,98.512,263.443,98.512L263.443,98.512z M164.495,173.458    c16.447-18.313,36.136-30.208,59.743-36.171c11.212-2.835,22.277-4.272,32.888-4.273c24.151,0,46.613,7.14,68.237,21.754    c-2.683,1.98-5.079,4.381-7.103,7.148c-5.122,7.003-7.307,15.595-6.151,24.191c0.927,6.801,3.32,13.487,7.32,20.456    c1.344,2.353,2.737,4.698,4.084,6.967c1.933,3.254,3.758,6.327,5.491,9.488c7.472,13.723,8.909,27.836,4.38,43.118    c-3.844,12.921-7.783,26.019-11.662,38.884c-4.332-12.875-8.653-25.714-12.97-38.538c-7.148-21.239-14.283-42.437-21.434-63.699    c1.237-0.105,2.596-0.258,4.01-0.537c8.148-1.516,13.358-8.194,12.682-16.274c-0.003-0.033-0.006-0.066-0.009-0.099    c-0.764-8.116-7.074-13.784-15.349-13.784c-0.303,0-0.61,0.007-0.923,0.023c-2.729,0.144-5.428,0.34-8.038,0.531    c-4.882,0.356-9.493,0.692-14.05,0.692l-0.45-0.001c-10.375-0.042-20.985-0.349-31.246-0.646    c-4.018-0.117-8.035-0.233-12.051-0.335c-0.234-0.006-0.646-0.044-1.082-0.085c-0.826-0.077-1.853-0.172-3.005-0.172    c-0.19,0-0.379,0.002-0.569,0.008c-6.668,0.169-12.021,4.213-14.019,10.222c-1.973-6.226-7.646-10.225-14.946-10.225    c-0.392,0-0.793,0.011-1.206,0.033c-3.124,0.168-6.283,0.372-9.338,0.568C173.375,172.983,168.883,173.272,164.495,173.458    L164.495,173.458z M190.573,202.391c6.373-1.089,10.852-4.746,12.594-9.902c1.739,5.189,6.23,8.995,12.188,9.805    c3.228,0.453,6.067,0.773,8.692,0.977c2.949,8.176,5.958,16.409,8.878,24.402c2.789,7.633,5.67,15.518,8.475,23.286    c-6.225,18.818-12.566,37.841-18.83,56.595c-11.863-35.245-23.781-70.692-35.234-104.765    C188.332,202.71,189.41,202.598,190.573,202.391L190.573,202.391z M178.646,352.889c-16.077-12.708-28.28-28.762-36.423-47.961    c-10.063-23.742-12.587-48.04-7.575-72.518C149.319,272.57,163.988,312.728,178.646,352.889L178.646,352.889z M342.483,344.302    c0.677-1.959,1.353-3.917,2.029-5.876c9.065-26.257,18.44-53.406,27.79-80.053l0.316-0.908c1.958-5.609,3.952-11.321,5.659-17.205    c1.491,10.991,1.388,22.183-0.321,33.517C373.692,302.112,362.016,325.399,342.483,344.302L342.483,344.302z M230.803,377.29    l3.871-11.235c7.916-22.974,15.802-45.863,23.676-68.73c4.384,11.999,8.771,24.007,13.171,36.045    c5.153,14.104,10.322,28.247,15.515,42.461c-10.355,2.704-20.771,4.07-31.077,4.07C247.695,379.9,239.27,379.024,230.803,377.29    L230.803,377.29z" style="fill:#232120;"/><path d="M361.372,478.061H144.748c-62.448,0-113.253-50.818-113.253-113.283V148.179    c0-62.454,50.805-113.263,113.253-113.263h216.624c62.459,0,113.272,50.81,113.272,113.263v216.599    C474.645,427.242,423.831,478.061,361.372,478.061z M144.748,44.818c-56.988,0-103.351,46.367-103.351,103.36v216.599    c0,57.004,46.363,103.381,103.351,103.381h216.624c56.998,0,103.37-46.377,103.37-103.381V148.179    c0-56.993-46.372-103.36-103.37-103.36H144.748z" style="fill:#232120;"/></g></g><g id="Layer_1"/></svg>