<?xml version="1.0" ?><!DOCTYPE svg  PUBLIC '-//W3C//DTD SVG 1.1//EN'  'http://www.w3.org/Graphics/SVG/1.1/DTD/svg11.dtd'><svg height="512px" style="enable-background:new 0 0 512 512;" version="1.1" viewBox="0 0 512 512" width="512px" xml:space="preserve" xmlns="http://www.w3.org/2000/svg" xmlns:xlink="http://www.w3.org/1999/xlink"><g id="dribble__x2C_"><path d="M492.871,374.968c0,65.432-53.089,118.482-118.585,118.482H137.159   c-65.487,0-118.556-53.051-118.556-118.482V138.009c0-65.451,53.069-118.483,118.556-118.483h237.127   c65.496,0,118.585,53.032,118.585,118.483V374.968z" style="fill:#FF73A5;"/><path d="M392.29,198.851c-3.724-8.794-8.317-17.259-13.682-25.166c-5.287-7.83-11.365-15.215-18.063-21.907   c-6.715-6.691-14.087-12.785-21.921-18.069c-7.931-5.361-16.404-9.95-25.184-13.672c-8.954-3.76-18.333-6.692-27.866-8.62   c-9.746-2.006-19.779-3.027-29.834-3.027c-10.035,0-20.089,1.021-29.854,3.027c-9.515,1.928-18.893,4.86-27.828,8.62   c-8.8,3.722-17.276,8.312-25.189,13.672c-7.854,5.284-15.226,11.378-21.942,18.069c-6.677,6.692-12.774,14.077-18.081,21.907   c-5.346,7.907-9.958,16.372-13.644,25.166c-3.802,8.948-6.716,18.32-8.665,27.827c-1.988,9.739-3.011,19.786-3.011,29.814   c0,10.042,1.023,20.068,3.011,29.827c1.949,9.526,4.863,18.879,8.665,27.827c3.686,8.774,8.298,17.26,13.644,25.166   c5.307,7.829,11.404,15.196,18.081,21.906c6.716,6.692,14.088,12.766,21.942,18.069c7.913,5.342,16.389,9.951,25.189,13.654   c8.935,3.798,18.313,6.69,27.828,8.639c9.764,2.005,19.818,3.008,29.854,3.008c10.055,0,20.088-1.003,29.834-3.008   c9.533-1.948,18.912-4.841,27.866-8.639c8.779-3.703,17.253-8.313,25.184-13.654c7.834-5.304,15.206-11.377,21.921-18.069   c6.698-6.71,12.776-14.077,18.063-21.906c5.364-7.906,9.958-16.392,13.682-25.166c3.782-8.948,6.698-18.301,8.646-27.827   c1.987-9.759,3.011-19.785,3.011-29.827c0-10.028-1.023-20.075-3.011-29.814C398.988,217.171,396.072,207.799,392.29,198.851z    M255.74,130.025c32.054,0,61.291,11.937,83.598,31.549c-0.309,0.501-18.334,27.924-66.115,45.8   c-21.633-39.726-45.407-71.275-47.318-73.782C235.477,131.279,245.453,130.025,255.74,130.025z M225.442,133.689   c-0.02,0.019-0.039,0.019-0.039,0.019s-0.134,0.039-0.386,0.097C225.152,133.767,225.306,133.747,225.442,133.689z    M201.743,142.098c1.68,2.275,25.088,33.978,46.991,72.875c-60.769,16.141-113.514,15.524-116.853,15.466   C140.102,191.252,166.424,158.759,201.743,142.098z M161.6,341.009c-20.147-22.408-32.421-52.029-32.421-84.517   c0-1.35,0.039-2.681,0.098-3.992c2.238,0.039,64.768,1.465,129.938-18.03c3.626,7.096,7.101,14.309,10.266,21.501   c-1.66,0.463-3.318,0.964-4.979,1.503c-68.296,22.056-102.94,83.478-102.94,83.478S161.6,340.989,161.6,341.009z M255.74,382.971   c-29.333,0-56.292-10.065-77.776-26.805v0.038c0,0-1.177-0.868-2.855-2.218c0.925,0.771,1.91,1.428,2.855,2.18   c0.232-0.502,24.61-52.974,99.313-78.97c0.288-0.115,0.56-0.192,0.848-0.27c17.813,46.244,25.166,84.966,27.037,96.036   C289.975,379.403,273.262,382.971,255.74,382.971z M326.466,361.393c-1.294-7.638-8.028-44.759-24.644-90.348   c40.873-6.513,76.285,4.667,78.891,5.515C375.077,311.812,354.873,342.224,326.466,361.393z M294.123,251.092   c-0.908-2.16-1.795-4.339-2.74-6.538c-2.625-6.171-5.462-12.323-8.414-18.339c49.98-20.383,70.282-49.715,70.534-50.062   c17.735,21.541,28.463,49.079,28.753,79.084C380.441,254.833,337.602,245.634,294.123,251.092z" style="fill:#FFFFFF;"/><path d="M392.29,198.851c-3.724-8.794-8.317-17.259-13.682-25.166c-5.287-7.83-11.365-15.215-18.063-21.907   c-6.715-6.691-14.087-12.785-21.921-18.069c-7.931-5.361-16.404-9.95-25.184-13.672c-8.954-3.76-18.333-6.692-27.866-8.62   c-9.746-2.006-19.779-3.027-29.834-3.027c-10.035,0-20.089,1.021-29.854,3.027c-9.515,1.928-18.893,4.86-27.828,8.62   c-8.8,3.722-17.276,8.312-25.189,13.672c-7.854,5.284-15.226,11.378-21.942,18.069c-6.677,6.692-12.774,14.077-18.081,21.907   c-5.346,7.907-9.958,16.372-13.644,25.166c-3.802,8.948-6.716,18.32-8.665,27.827c-1.988,9.739-3.011,19.786-3.011,29.814   c0,10.042,1.023,20.068,3.011,29.827c1.949,9.526,4.863,18.879,8.665,27.827c3.686,8.774,8.298,17.26,13.644,25.166   c5.307,7.829,11.404,15.196,18.081,21.906c6.716,6.692,14.088,12.766,21.942,18.069c7.913,5.342,16.389,9.951,25.189,13.654   c8.935,3.798,18.313,6.69,27.828,8.639c9.764,2.005,19.818,3.008,29.854,3.008c10.055,0,20.088-1.003,29.834-3.008   c9.533-1.948,18.912-4.841,27.866-8.639c8.779-3.703,17.253-8.313,25.184-13.654c7.834-5.304,15.206-11.377,21.921-18.069   c6.698-6.71,12.776-14.077,18.063-21.906c5.364-7.906,9.958-16.392,13.682-25.166c3.782-8.948,6.698-18.301,8.646-27.827   c1.987-9.759,3.011-19.785,3.011-29.827c0-10.028-1.023-20.075-3.011-29.814C398.988,217.171,396.072,207.799,392.29,198.851z    M255.74,130.025c32.054,0,61.291,11.937,83.598,31.549c-0.309,0.501-18.334,27.924-66.115,45.8   c-21.633-39.726-45.407-71.275-47.318-73.782C235.477,131.279,245.453,130.025,255.74,130.025z M225.442,133.689   c-0.02,0.019-0.039,0.019-0.039,0.019s-0.134,0.039-0.386,0.097C225.152,133.767,225.306,133.747,225.442,133.689z    M201.743,142.098c1.68,2.275,25.088,33.978,46.991,72.875c-60.769,16.141-113.514,15.524-116.853,15.466   C140.102,191.252,166.424,158.759,201.743,142.098z M161.6,341.009c-20.147-22.408-32.421-52.029-32.421-84.517   c0-1.35,0.039-2.681,0.098-3.992c2.238,0.039,64.768,1.465,129.938-18.03c3.626,7.096,7.101,14.309,10.266,21.501   c-1.66,0.463-3.318,0.964-4.979,1.503c-68.296,22.056-102.94,83.478-102.94,83.478S161.6,340.989,161.6,341.009z M255.74,382.971   c-29.333,0-56.292-10.065-77.776-26.805v0.038c0,0-1.177-0.868-2.855-2.218c0.925,0.771,1.91,1.428,2.855,2.18   c0.232-0.502,24.61-52.974,99.313-78.97c0.288-0.115,0.56-0.192,0.848-0.27c17.813,46.244,25.166,84.966,27.037,96.036   C289.975,379.403,273.262,382.971,255.74,382.971z M326.466,361.393c-1.294-7.638-8.028-44.759-24.644-90.348   c40.873-6.513,76.285,4.667,78.891,5.515C375.077,311.812,354.873,342.224,326.466,361.393z M294.123,251.092   c-0.908-2.16-1.795-4.339-2.74-6.538c-2.625-6.171-5.462-12.323-8.414-18.339c49.98-20.383,70.282-49.715,70.534-50.062   c17.735,21.541,28.463,49.079,28.753,79.084C380.441,254.833,337.602,245.634,294.123,251.092z" style="fill:#FFFFFF;"/><path d="M255.74,108.389c10.055,0,20.088,1.021,29.834,3.027c9.533,1.928,18.912,4.86,27.866,8.62   c8.779,3.722,17.253,8.312,25.184,13.672c7.834,5.284,15.206,11.378,21.921,18.069c6.698,6.692,12.776,14.077,18.063,21.907   c5.364,7.907,9.958,16.372,13.682,25.166c3.782,8.948,6.698,18.32,8.646,27.827c1.987,9.739,3.011,19.786,3.011,29.814   c0,10.042-1.023,20.068-3.011,29.827c-1.948,9.526-4.864,18.879-8.646,27.827c-3.724,8.774-8.317,17.26-13.682,25.166   c-5.287,7.829-11.365,15.196-18.063,21.906c-6.715,6.692-14.087,12.766-21.921,18.069c-7.931,5.342-16.404,9.951-25.184,13.654   c-8.954,3.798-18.333,6.69-27.866,8.639c-9.746,2.005-19.779,3.008-29.834,3.008c-10.035,0-20.089-1.003-29.854-3.008   c-9.515-1.948-18.893-4.841-27.828-8.639c-8.8-3.703-17.276-8.313-25.189-13.654c-7.854-5.304-15.226-11.377-21.942-18.069   c-6.677-6.71-12.774-14.077-18.081-21.906c-5.346-7.906-9.958-16.392-13.644-25.166c-3.802-8.948-6.716-18.301-8.665-27.827   c-1.988-9.759-3.011-19.785-3.011-29.827c0-10.028,1.023-20.075,3.011-29.814c1.949-9.507,4.863-18.879,8.665-27.827   c3.686-8.794,8.298-17.259,13.644-25.166c5.307-7.83,11.404-15.215,18.081-21.907c6.716-6.691,14.088-12.785,21.942-18.069   c7.913-5.361,16.389-9.95,25.189-13.672c8.935-3.76,18.313-6.692,27.828-8.62C235.65,109.41,245.705,108.389,255.74,108.389    M273.223,207.375c47.781-17.876,65.807-45.299,66.115-45.8c-22.308-19.612-51.544-31.549-83.598-31.549   c-10.287,0-20.263,1.254-29.835,3.567C227.815,136.1,251.59,167.649,273.223,207.375 M225.338,133.726   c-0.031,0.008-0.072,0.019-0.125,0.032c-0.067,0.016-0.134,0.029-0.197,0.047c0.077-0.018,0.143-0.034,0.197-0.047   C225.255,133.749,225.297,133.738,225.338,133.726c0.042-0.011,0.064-0.018,0.064-0.018s0.02,0,0.039-0.019   C225.408,133.704,225.374,133.716,225.338,133.726 M134.269,230.456c11.427,0,59.687-0.933,114.465-15.483   c-21.903-38.896-45.311-70.599-46.991-72.875c-35.319,16.662-61.642,49.155-69.862,88.341   C132.21,230.444,133.019,230.456,134.269,230.456 M294.123,251.092c9.898-1.243,19.761-1.725,29.116-1.725   c31.739,0,57.615,5.559,59.017,5.871c-0.29-30.006-11.018-57.544-28.753-79.084c-0.252,0.347-20.554,29.679-70.534,50.062   c2.952,6.016,5.789,12.168,8.414,18.339C292.328,246.753,293.215,248.932,294.123,251.092 M133.45,252.536   c-2.424,0-3.867-0.031-4.173-0.037c-0.059,1.312-0.098,2.642-0.098,3.992c0,32.488,12.274,62.109,32.421,84.517   c0-0.02-0.039-0.058-0.039-0.058s34.645-61.422,102.94-83.478c1.66-0.539,3.318-1.04,4.979-1.503   c-3.165-7.193-6.64-14.406-10.266-21.501C202.978,251.292,148.71,252.536,133.45,252.536 M326.466,361.393   c28.407-19.169,48.611-49.581,54.247-84.833c-2.022-0.658-23.814-7.544-52.589-7.543c-8.289,0-17.161,0.572-26.302,2.028   C318.438,316.634,325.172,353.755,326.466,361.393 M177.964,356.166c-0.72-0.572-1.462-1.089-2.184-1.644   c-0.213-0.169-0.438-0.348-0.672-0.536c0.221,0.185,0.445,0.362,0.672,0.536c1.313,1.039,2.184,1.682,2.184,1.682V356.166   c21.484,16.739,48.442,26.805,77.776,26.805c17.522,0,34.235-3.567,49.421-10.008c-1.871-11.07-9.224-49.792-27.037-96.036   c-0.288,0.077-0.56,0.154-0.848,0.27C202.574,303.192,178.196,355.664,177.964,356.166 M255.74,98.512   c-10.697,0-21.41,1.086-31.841,3.229c-10.014,2.029-20.006,5.124-29.671,9.191c-9.454,3.998-18.498,8.908-26.898,14.599   c-8.271,5.565-16.144,12.047-23.373,19.249c-7.149,7.165-13.63,15.018-19.287,23.364c-5.774,8.539-10.676,17.583-14.577,26.889   c-4.034,9.495-7.146,19.489-9.231,29.662c-2.132,10.444-3.212,21.14-3.212,31.797c0,10.644,1.08,21.342,3.209,31.798   c2.079,10.163,5.191,20.159,9.252,29.718c3.907,9.3,8.808,18.341,14.553,26.836c5.622,8.295,12.101,16.145,19.262,23.341   c7.189,7.164,15.058,13.644,23.415,19.288c8.505,5.741,17.55,10.645,26.886,14.572c9.43,4.009,19.426,7.112,29.678,9.211   c10.367,2.129,21.08,3.209,31.835,3.209c10.762,0,21.469-1.08,31.825-3.21c10.233-2.092,20.241-5.194,29.732-9.221   c9.288-3.918,18.326-8.817,26.845-14.555c8.376-5.671,16.234-12.148,23.376-19.266c7.167-7.18,13.646-15.038,19.276-23.375   c5.666-8.351,10.578-17.385,14.588-26.835c4.06-9.603,7.163-19.593,9.231-29.707c2.131-10.465,3.211-21.163,3.211-31.805   c0-10.655-1.08-21.35-3.21-31.789c-2.078-10.14-5.182-20.128-9.227-29.698c-3.99-9.424-8.903-18.461-14.605-26.866   c-5.657-8.377-12.14-16.24-19.257-23.349c-7.219-7.194-15.082-13.674-23.378-19.271c-8.406-5.682-17.443-10.588-26.852-14.577   c-9.727-4.085-19.73-7.178-29.764-9.208C277.151,99.599,266.443,98.512,255.74,98.512L255.74,98.512z M243.178,140.584   c4.178-0.454,8.374-0.682,12.562-0.682c25.179,0,49.574,8.138,69.661,23.087c-7.394,7.874-22.491,21.179-47.765,31.982   C264.756,172.183,251.672,152.667,243.178,140.584L243.178,140.584z M144.788,220.367c9.054-27.66,28.411-51.274,53.921-65.597   c7.194,10.131,20.953,30.127,34.92,53.785C195.653,217.384,161.973,219.75,144.788,220.367L144.788,220.367z M296.272,231.202   c28.754-13.282,46.957-29.066,56.682-39.207c10.162,15.332,16.586,32.969,18.68,51.286c-11.142-1.729-28.579-3.791-48.395-3.791   c-7.877,0-15.533,0.334-22.854,0.996C299.091,237.447,297.717,234.344,296.272,231.202L296.272,231.202z M139.203,262.36   c19.806-0.344,66.045-2.705,114.848-16.134c0.619,1.266,1.226,2.522,1.818,3.764c-34.414,12.453-59.964,34.213-75.611,50.692   c-8.473,8.923-14.972,17.211-19.5,23.524C147.816,306.104,140.323,284.684,139.203,262.36L139.203,262.36z M315.235,279.396   c4.233-0.334,8.539-0.503,12.889-0.503c17.62,0,32.358,2.688,41.107,4.762c-5.568,23.202-18.262,44.258-36.126,60.112   C329.901,328.793,324.277,305.972,315.235,279.396L315.235,279.396z M190.915,353.358c3.231-5.087,8.546-12.519,16.38-20.78   c12.256-12.926,33.202-30.41,65.019-43.003c12.259,33.69,18.761,62.305,21.657,77.118c-12.253,4.251-25.078,6.4-38.231,6.4   C232.417,373.094,210.175,366.297,190.915,353.358L190.915,353.358z" style="fill:#BF567C;"/><path d="M364.039,478.061H147.415c-62.448,0-113.253-50.818-113.253-113.283V148.179   c0-62.454,50.805-113.263,113.253-113.263h216.624c62.459,0,113.272,50.81,113.272,113.263v216.599   C477.312,427.242,426.498,478.061,364.039,478.061z M147.415,44.818c-56.988,0-103.351,46.367-103.351,103.36v216.599   c0,57.004,46.363,103.381,103.351,103.381h216.624c56.998,0,103.37-46.377,103.37-103.381V148.179   c0-56.993-46.372-103.36-103.37-103.36H147.415z" style="fill:#BF567C;"/></g><g id="Layer_1"/></svg>