<?xml version="1.0" ?><!DOCTYPE svg  PUBLIC '-//W3C//DTD SVG 1.1//EN'  'http://www.w3.org/Graphics/SVG/1.1/DTD/svg11.dtd'><svg height="512px" style="enable-background:new 0 0 512 512;" version="1.1" viewBox="0 0 512 512" width="512px" xml:space="preserve" xmlns="http://www.w3.org/2000/svg" xmlns:xlink="http://www.w3.org/1999/xlink"><g id="skype__x2C_"><path d="M492.871,374.968c0,65.432-53.089,118.482-118.585,118.482H137.149   c-65.477,0-118.546-53.051-118.546-118.482V138.009c0-65.432,53.069-118.483,118.546-118.483h237.137   c65.496,0,118.585,53.051,118.585,118.483V374.968z" style="fill:#00ABF3;"/><path d="M398.678,258.053c0-76.924-63.296-139.289-141.376-139.289c-8.239,0-16.306,0.713-24.18,2.044   c-12.639-7.849-27.576-12.419-43.612-12.419c-45.288,0-81.983,36.177-81.983,80.801c0,14.907,4.111,28.868,11.251,40.863   c-1.872,9.044-2.856,18.417-2.856,28c0,76.939,63.297,139.284,141.38,139.284c8.84,0,17.504-0.79,25.879-2.314   c11.561,6.095,24.759,9.565,38.771,9.565c45.292,0,81.996-36.158,81.996-80.781c0-12.882-3.069-25.05-8.51-35.868   C397.56,278.296,398.678,268.307,398.678,258.053z M329.824,324.616c-6.542,9.122-16.21,16.354-28.734,21.483   c-12.39,5.071-27.249,7.655-44.154,7.655c-20.321,0-37.361-3.528-50.638-10.471c-9.495-5.053-17.348-11.898-23.298-20.364   c-5.991-8.505-9.04-16.99-9.04-25.166c0-5.092,1.997-9.526,5.915-13.133c3.85-3.605,8.824-5.419,14.748-5.419   c4.863,0,9.051,1.428,12.448,4.262c3.261,2.72,6.06,6.75,8.279,11.938c2.527,5.67,5.249,10.433,8.124,14.174   c2.779,3.625,6.774,6.672,11.868,9.044c5.133,2.391,12.042,3.606,20.533,3.606c11.677,0,21.266-2.449,28.484-7.309   c7.044-4.725,10.439-10.414,10.439-17.375c0-5.497-1.756-9.816-5.441-13.21c-3.86-3.548-8.935-6.286-15.091-8.215   c-6.407-1.967-15.149-4.108-25.937-6.325c-14.666-3.086-27.133-6.764-37.052-10.91c-10.131-4.261-18.313-10.143-24.281-17.509   c-6.069-7.501-9.167-16.874-9.167-27.923c0-10.529,3.233-20.017,9.611-28.193c6.314-8.119,15.559-14.444,27.446-18.764   c11.752-4.262,25.705-6.441,41.49-6.441c12.62,0,23.719,1.446,32.98,4.281c9.321,2.854,17.174,6.71,23.35,11.474   c6.234,4.783,10.866,9.893,13.74,15.215c2.934,5.361,4.439,10.703,4.439,15.871c0,4.995-1.968,9.507-5.81,13.46   c-3.878,3.973-8.761,5.979-14.512,5.979c-5.25,0-9.34-1.272-12.178-3.722c-2.643-2.333-5.401-5.92-8.432-11.088   c-3.551-6.595-7.816-11.802-12.698-15.466c-4.767-3.567-12.698-5.361-23.621-5.361c-10.112,0-18.372,2.006-24.489,5.959   c-5.885,3.799-8.761,8.158-8.761,13.345c0,3.182,0.927,5.824,2.836,8.1c1.988,2.429,4.845,4.531,8.415,6.325   c3.724,1.832,7.564,3.298,11.366,4.338c3.936,1.081,10.537,2.662,19.588,4.725c11.424,2.43,21.96,5.129,31.242,8.061   c9.418,2.988,17.542,6.614,24.182,10.896c6.791,4.338,12.137,9.892,15.958,16.559c3.821,6.691,5.751,14.945,5.751,24.549   C339.724,305.005,336.365,315.476,329.824,324.616z" style="fill:#FFFFFF;"/><path d="M398.678,258.053c0-76.924-63.296-139.289-141.376-139.289c-8.239,0-16.306,0.713-24.18,2.044   c-12.639-7.849-27.576-12.419-43.612-12.419c-45.288,0-81.983,36.177-81.983,80.801c0,14.907,4.111,28.868,11.251,40.863   c-1.872,9.044-2.856,18.417-2.856,28c0,76.939,63.297,139.284,141.38,139.284c8.84,0,17.504-0.79,25.879-2.314   c11.561,6.095,24.759,9.565,38.771,9.565c45.292,0,81.996-36.158,81.996-80.781c0-12.882-3.069-25.05-8.51-35.868   C397.56,278.296,398.678,268.307,398.678,258.053z M329.824,324.616c-6.542,9.122-16.21,16.354-28.734,21.483   c-12.39,5.071-27.249,7.655-44.154,7.655c-20.321,0-37.361-3.528-50.638-10.471c-9.495-5.053-17.348-11.898-23.298-20.364   c-5.991-8.505-9.04-16.99-9.04-25.166c0-5.092,1.997-9.526,5.915-13.133c3.85-3.605,8.824-5.419,14.748-5.419   c4.863,0,9.051,1.428,12.448,4.262c3.261,2.72,6.06,6.75,8.279,11.938c2.527,5.67,5.249,10.433,8.124,14.174   c2.779,3.625,6.774,6.672,11.868,9.044c5.133,2.391,12.042,3.606,20.533,3.606c11.677,0,21.266-2.449,28.484-7.309   c7.044-4.725,10.439-10.414,10.439-17.375c0-5.497-1.756-9.816-5.441-13.21c-3.86-3.548-8.935-6.286-15.091-8.215   c-6.407-1.967-15.149-4.108-25.937-6.325c-14.666-3.086-27.133-6.764-37.052-10.91c-10.131-4.261-18.313-10.143-24.281-17.509   c-6.069-7.501-9.167-16.874-9.167-27.923c0-10.529,3.233-20.017,9.611-28.193c6.314-8.119,15.559-14.444,27.446-18.764   c11.752-4.262,25.705-6.441,41.49-6.441c12.62,0,23.719,1.446,32.98,4.281c9.321,2.854,17.174,6.71,23.35,11.474   c6.234,4.783,10.866,9.893,13.74,15.215c2.934,5.361,4.439,10.703,4.439,15.871c0,4.995-1.968,9.507-5.81,13.46   c-3.878,3.973-8.761,5.979-14.512,5.979c-5.25,0-9.34-1.272-12.178-3.722c-2.643-2.333-5.401-5.92-8.432-11.088   c-3.551-6.595-7.816-11.802-12.698-15.466c-4.767-3.567-12.698-5.361-23.621-5.361c-10.112,0-18.372,2.006-24.489,5.959   c-5.885,3.799-8.761,8.158-8.761,13.345c0,3.182,0.927,5.824,2.836,8.1c1.988,2.429,4.845,4.531,8.415,6.325   c3.724,1.832,7.564,3.298,11.366,4.338c3.936,1.081,10.537,2.662,19.588,4.725c11.424,2.43,21.96,5.129,31.242,8.061   c9.418,2.988,17.542,6.614,24.182,10.896c6.791,4.338,12.137,9.892,15.958,16.559c3.821,6.691,5.751,14.945,5.751,24.549   C339.724,305.005,336.365,315.476,329.824,324.616z" style="fill:#FFFFFF;"/><path d="M189.509,108.389c16.036,0,30.973,4.57,43.612,12.419c7.874-1.331,15.941-2.044,24.18-2.044   c78.08,0,141.376,62.365,141.376,139.289c0,10.254-1.118,20.243-3.24,29.886c5.44,10.818,8.51,22.986,8.51,35.868   c0,44.623-36.704,80.781-81.996,80.781c-14.012,0-27.21-3.471-38.771-9.565c-8.375,1.524-17.039,2.314-25.879,2.314   c-78.083,0-141.38-62.345-141.38-139.284c0-9.583,0.984-18.956,2.856-28c-7.14-11.995-11.251-25.956-11.251-40.863   C107.526,144.566,144.222,108.389,189.509,108.389 M255.874,322.226c-8.491,0-15.4-1.216-20.533-3.606   c-5.094-2.372-9.089-5.419-11.868-9.044c-2.875-3.741-5.597-8.504-8.124-14.174c-2.22-5.188-5.018-9.218-8.279-11.938   c-3.396-2.834-7.584-4.262-12.448-4.262c-5.924,0-10.898,1.813-14.748,5.419c-3.918,3.606-5.915,8.041-5.915,13.133   c0,8.176,3.049,16.661,9.04,25.166c5.95,8.466,13.803,15.312,23.298,20.364c13.277,6.942,30.316,10.471,50.638,10.471   c16.905,0,31.764-2.584,44.154-7.655c12.524-5.13,22.192-12.361,28.734-21.483c6.541-9.141,9.899-19.611,9.899-31.066   c0-9.604-1.93-17.857-5.751-24.549c-3.821-6.667-9.167-12.221-15.958-16.559c-6.64-4.281-14.764-7.907-24.182-10.896   c-9.282-2.932-19.818-5.631-31.242-8.061c-9.051-2.063-15.652-3.645-19.588-4.725c-3.802-1.041-7.642-2.507-11.366-4.338   c-3.57-1.794-6.427-3.896-8.415-6.325c-1.91-2.275-2.836-4.918-2.836-8.1c0-5.187,2.875-9.545,8.761-13.345   c6.118-3.953,14.377-5.959,24.489-5.959c10.923,0,18.854,1.794,23.621,5.361c4.882,3.664,9.147,8.871,12.698,15.466   c3.03,5.168,5.789,8.755,8.432,11.088c2.838,2.45,6.928,3.722,12.178,3.722c5.751,0,10.634-2.006,14.512-5.979   c3.842-3.953,5.81-8.465,5.81-13.46c0-5.168-1.506-10.51-4.439-15.871c-2.874-5.323-7.506-10.433-13.74-15.215   c-6.176-4.763-14.028-8.62-23.35-11.474c-9.262-2.835-20.36-4.281-32.98-4.281c-15.786,0-29.738,2.179-41.49,6.441   c-11.887,4.319-21.131,10.645-27.446,18.764c-6.378,8.176-9.611,17.664-9.611,28.193c0,11.049,3.098,20.422,9.167,27.923   c5.968,7.367,14.149,13.249,24.281,17.509c9.919,4.146,22.386,7.824,37.052,10.91c10.788,2.217,19.53,4.358,25.937,6.325   c6.156,1.929,11.23,4.667,15.091,8.215c3.686,3.394,5.441,7.713,5.441,13.21c0,6.961-3.396,12.65-10.439,17.375   C277.14,319.776,267.551,322.226,255.874,322.226 M189.509,98.512c-50.652,0-91.86,40.678-91.86,90.678   c0,14.86,3.703,29.493,10.74,42.56c-1.557,8.644-2.345,17.474-2.345,26.303c0,39.876,15.752,77.354,44.354,105.53   c28.561,28.136,66.526,43.631,106.903,43.631c8.19,0,16.361-0.642,24.34-1.91c12.505,6.002,26.367,9.161,40.31,9.161   c50.659,0,91.873-40.669,91.873-90.658c0-12.947-2.702-25.418-8.038-37.125c1.838-9.397,2.769-19.011,2.769-28.629   c0-39.87-15.752-77.347-44.353-105.527c-28.563-28.141-66.527-43.639-106.9-43.639c-7.363,0-14.814,0.542-22.202,1.613   C221.225,102.646,205.542,98.512,189.509,98.512L189.509,98.512z M255.874,332.103c13.697,0,25.136-3.025,34-8.992   c9.816-6.584,14.801-15.189,14.801-25.568c0-8.315-2.902-15.204-8.628-20.476c-4.904-4.508-11.237-7.996-18.828-10.374   c-0.019-0.006-0.036-0.012-0.055-0.018c-6.807-2.089-15.84-4.296-26.847-6.558c-13.982-2.942-25.851-6.427-35.231-10.348   c-8.625-3.627-15.501-8.547-20.416-14.614c-4.62-5.71-6.965-13.015-6.965-21.706c0-8.278,2.531-15.72,7.522-22.118   c5.173-6.651,12.919-11.881,23.031-15.556c10.696-3.879,23.522-5.847,38.117-5.847c11.624,0,21.748,1.295,30.089,3.849   c8.184,2.505,14.982,5.819,20.209,9.85c5.167,3.964,8.889,8.025,11.081,12.087c0.009,0.016,0.018,0.032,0.026,0.048   c2.142,3.914,3.228,7.658,3.228,11.13c0,1.491-0.313,3.795-3.016,6.576c-1.983,2.032-4.349,2.985-7.429,2.985   c-2.636,0-4.705-0.472-5.691-1.295c-1.836-1.639-3.959-4.494-6.313-8.49c-4.225-7.799-9.396-14.028-15.375-18.514   c-6.602-4.941-16.264-7.339-29.55-7.339c-12.064,0-22.107,2.537-29.85,7.54c-10.973,7.084-13.277,15.679-13.277,21.641   c0,5.496,1.718,10.34,5.106,14.4c2.814,3.423,6.712,6.4,11.586,8.85c0.025,0.013,0.051,0.025,0.076,0.038   c4.295,2.112,8.709,3.795,13.118,5.002c3.937,1.081,10.294,2.616,20,4.828c0.047,0.011,0.094,0.021,0.141,0.031   c11.311,2.405,21.513,5.036,30.322,7.818c8.67,2.751,16.01,6.042,21.804,9.778c5.448,3.48,9.724,7.903,12.741,13.169   c2.946,5.158,4.443,11.771,4.443,19.638c0,9.331-2.71,17.85-8.055,25.318c-5.441,7.587-13.668,13.677-24.446,18.092   c-11.214,4.59-24.811,6.918-40.41,6.918c-18.688,0-34.175-3.14-46.032-9.331c-8.126-4.331-14.795-10.153-19.822-17.307   c-4.809-6.826-7.244-13.379-7.244-19.486c0-2.321,0.841-4.13,2.727-5.866c0.021-0.019,0.042-0.038,0.063-0.058   c1.976-1.852,4.592-2.751,7.996-2.751c2.566,0,4.51,0.626,6.12,1.969c2.036,1.697,3.946,4.546,5.526,8.239   c0.02,0.045,0.039,0.091,0.059,0.136c2.854,6.402,5.988,11.844,9.314,16.171c3.752,4.896,8.98,8.93,15.529,11.979   C237.625,330.578,245.936,332.103,255.874,332.103L255.874,332.103z" style="fill:#0080B6;"/><path d="M364.039,478.061H147.415c-62.448,0-113.253-50.818-113.253-113.283V148.179   c0-62.454,50.805-113.263,113.253-113.263h216.624c62.459,0,113.272,50.81,113.272,113.263v216.599   C477.312,427.242,426.498,478.061,364.039,478.061z M147.415,44.818c-56.988,0-103.351,46.367-103.351,103.36v216.599   c0,57.004,46.363,103.381,103.351,103.381h216.624c56.998,0,103.37-46.377,103.37-103.381V148.179   c0-56.993-46.372-103.36-103.37-103.36H147.415z" style="fill:#0080B6;"/></g><g id="Layer_1"/></svg>