<?xml version="1.0" ?><!DOCTYPE svg  PUBLIC '-//W3C//DTD SVG 1.1//EN'  'http://www.w3.org/Graphics/SVG/1.1/DTD/svg11.dtd'><svg height="512px" style="enable-background:new 0 0 512 512;" version="1.1" viewBox="0 0 512 512" width="512px" xml:space="preserve" xmlns="http://www.w3.org/2000/svg" xmlns:xlink="http://www.w3.org/1999/xlink"><g id="evernote__x2C_"><g><path d="M492.871,374.968c0,65.451-53.089,118.482-118.565,118.482H137.178    c-65.506,0-118.576-53.031-118.576-118.482V138.009c0-65.432,53.069-118.483,118.576-118.483h237.127    c65.477,0,118.565,53.051,118.565,118.483V374.968z" style="fill:#86C243;"/><path d="M284.686,346.061c5.926,0,10.788,0.694,10.788,0.694v-23.198c0,0-47.705-0.309-47.705,35.733    c0,36.043,24.934,45.298,44.964,45.298c19.992,0,32.595,0,32.595,0s58.857-7.463,58.857-122.184    c0-114.717-18.41-125.381-23.582-134.213c-5.172-8.833-32.343-18.976-46.43-18.976c-14.029,0-36.262,0-36.262,0    s-11.675-20.827-39.059-20.827c-27.442,0-25.57,12.072-25.57,22.35v41.616l-12.446,12.958h-57.369c0,0-16.18,10.549-16.18,33.343    s7.188,102.24,55.355,109.586c56.962,8.717,66.708-17.414,66.708-20.557c0-13.229,0.348-33.285,0.348-33.285    s16.674,31.472,41.877,31.472s39.869,14.271,39.869,28.984c0,14.715,0,27.211,0,27.211s-0.945,17.008-15.768,17.008    c-14.82,0-31.61,0-31.61,0s-10.381-7.964-10.381-18.976C273.687,349.05,278.742,346.061,284.686,346.061z M302.094,251.015    c0,0,2.854-18.917,13.95-18.917c11.136,0,26.401,25.261,26.401,25.261S307.612,251.015,302.094,251.015z" style="fill:#FFFFFF;"/><polygon points="188.196,172.239 200.528,160.456 200.508,111.648 139.532,172.181   " style="fill:#FFFFFF;"/><path d="M284.686,346.061c5.926,0,10.788,0.694,10.788,0.694v-23.198c0,0-47.705-0.309-47.705,35.733    c0,36.043,24.934,45.298,44.964,45.298c19.992,0,32.595,0,32.595,0s58.857-7.463,58.857-122.184    c0-114.717-18.41-125.381-23.582-134.213c-5.172-8.833-32.343-18.976-46.43-18.976c-14.029,0-36.262,0-36.262,0    s-11.675-20.827-39.059-20.827c-27.442,0-25.57,12.072-25.57,22.35v41.616l-12.446,12.958h-57.369c0,0-16.18,10.549-16.18,33.343    s7.188,102.24,55.355,109.586c56.962,8.717,66.708-17.414,66.708-20.557c0-13.229,0.348-33.285,0.348-33.285    s16.674,31.472,41.877,31.472s39.869,14.271,39.869,28.984c0,14.715,0,27.211,0,27.211s-0.945,17.008-15.768,17.008    c-14.82,0-31.61,0-31.61,0s-10.381-7.964-10.381-18.976C273.687,349.05,278.742,346.061,284.686,346.061z M302.094,251.015    c0,0,2.854-18.917,13.95-18.917c11.136,0,26.401,25.261,26.401,25.261S307.612,251.015,302.094,251.015z" style="fill:#FFFFFF;"/><polygon points="188.196,172.239 200.528,160.456 200.508,111.648 139.532,172.181   " style="fill:#FFFFFF;"/><path d="M238.854,108.389c27.384,0,39.059,20.827,39.059,20.827s22.232,0,36.262,0    c14.087,0,41.258,10.143,46.43,18.976c5.172,8.832,23.582,19.496,23.582,134.213c0,114.721-58.857,122.184-58.857,122.184    s-12.603,0-32.595,0c-20.03,0-44.964-9.255-44.964-45.298c0-35.438,46.117-35.733,47.665-35.733c0.026,0,0.04,0,0.04,0v23.198    c0,0-4.862-0.694-10.788-0.694c-5.943,0-10.999,2.989-10.999,14.039c0,11.012,10.381,18.976,10.381,18.976s16.79,0,31.61,0    c14.822,0,15.768-17.008,15.768-17.008s0-12.496,0-27.211c0-14.714-14.666-28.984-39.869-28.984S249.699,274.4,249.699,274.4    s-0.348,20.056-0.348,33.285c0,2.697-7.177,22.327-45.225,22.327c-6.283,0-13.41-0.535-21.482-1.771    c-48.167-7.347-55.355-86.792-55.355-109.586s16.18-33.343,16.18-33.343h57.369l12.446-12.958v-41.616    C213.283,120.46,211.412,108.389,238.854,108.389 M342.445,257.358c0,0-15.266-25.261-26.401-25.261    c-11.096,0-13.95,18.917-13.95,18.917C307.612,251.015,342.445,257.358,342.445,257.358 M238.854,98.512    c-13.788,0-22.935,2.754-28.784,8.667c-6.836,6.91-6.74,15.876-6.676,21.81c0.006,0.588,0.013,1.172,0.013,1.75v37.641    l-6.778,7.057h-53.16c-1.916,0-3.79,0.557-5.394,1.603c-0.844,0.55-20.663,13.792-20.663,41.617    c0,15.277,2.649,41.124,10.115,63.688c10.824,32.715,29.368,51.962,53.628,55.662c8.167,1.25,15.897,1.885,22.972,1.885    c18.359,0,32.845-4.146,43.054-12.319c8.323-6.664,12.048-14.789,12.048-19.886c0-1.786,0.006-3.703,0.018-5.682    c6.426,5.716,14.403,10.791,23.708,12.814c-4.617,0.755-10.047,2.01-15.476,4.096c-19.079,7.33-29.586,21.67-29.586,40.376    c0,24.218,10.208,37.269,18.771,43.951c11.886,9.276,26.176,11.224,36.07,11.224h32.595c0.415,0,0.83-0.026,1.242-0.078    c1.877-0.238,18.814-2.855,35.499-21.23c9.483-10.445,16.988-23.966,22.306-40.187c6.428-19.609,9.688-43.352,9.688-70.565    c0-44.666-2.825-79.167-8.397-102.547c-4.958-20.801-11.2-29.289-14.93-34.36c-0.694-0.944-1.294-1.76-1.608-2.297    c-4.533-7.742-15.968-13.514-24.762-16.993c-10.87-4.301-22.157-6.868-30.191-6.868h-31.177    C276.932,111.794,262.844,98.512,238.854,98.512L238.854,98.512z M315.504,242.737c0.205-0.272,0.402-0.492,0.588-0.651    c0.339,0.148,0.911,0.443,1.723,1.011C317.032,242.973,316.261,242.853,315.504,242.737L315.504,242.737z M295.463,356.63    c2.367,0,4.677-0.85,6.485-2.423c2.157-1.876,3.402-4.594,3.402-7.452v-23.198c0-2.512-0.938-4.806-2.483-6.55    c12.219,2.942,18.701,10.575,18.701,17.85v26.782c-0.105,0.929-0.508,3.086-1.472,4.887c-1.071,1.998-2.187,2.673-4.419,2.673    h-27.707c-2.018-2.229-4.407-5.685-4.407-9.099c0-2.355,0.311-3.589,0.507-4.133c0.152-0.017,0.355-0.029,0.615-0.029    c5.088,0,9.361,0.591,9.404,0.597C294.547,356.599,295.006,356.63,295.463,356.63L295.463,356.63z M200.508,111.648l0.02,48.808    l-12.332,11.783l-48.665-0.058L200.508,111.648 M200.51,101.771c-2.558,0-5.073,0.994-6.96,2.868l-60.977,60.533    c-2.838,2.818-3.697,7.069-2.176,10.768c1.521,3.698,5.123,6.114,9.123,6.119l48.665,0.058c0.004,0,0.008,0,0.012,0    c2.542,0,4.985-0.979,6.823-2.736l12.332-11.783c1.952-1.864,3.055-4.446,3.054-7.145l-0.02-48.808    c-0.001-3.988-2.401-7.583-6.083-9.115C203.077,102.019,201.788,101.771,200.51,101.771L200.51,101.771z M364.039,478.061H147.415    c-62.448,0-113.253-50.818-113.253-113.283V148.179c0-62.454,50.805-113.263,113.253-113.263h216.624    c62.459,0,113.272,50.81,113.272,113.263v216.599C477.312,427.242,426.498,478.061,364.039,478.061z M147.415,44.818    c-56.988,0-103.351,46.367-103.351,103.36v216.599c0,57.004,46.363,103.381,103.351,103.381h216.624    c56.998,0,103.37-46.377,103.37-103.381V148.179c0-56.993-46.372-103.36-103.37-103.36H147.415z" style="fill:#436122;"/></g></g><g id="Layer_1"/></svg>