<?xml version="1.0" ?><!DOCTYPE svg  PUBLIC '-//W3C//DTD SVG 1.1//EN'  'http://www.w3.org/Graphics/SVG/1.1/DTD/svg11.dtd'><svg height="512px" style="enable-background:new 0 0 512 512;" version="1.1" viewBox="0 0 512 512" width="512px" xml:space="preserve" xmlns="http://www.w3.org/2000/svg" xmlns:xlink="http://www.w3.org/1999/xlink"><g id="diigo__x2C_"><g><path d="M492.871,374.968c0,65.451-53.089,118.482-118.585,118.482H137.149    c-65.477,0-118.546-53.031-118.546-118.482V138.009c0-65.432,53.069-118.483,118.546-118.483h237.137    c65.496,0,118.585,53.051,118.585,118.483V374.968z" style="fill:#3B6EAD;"/><path d="M200.759,157.664c12.815,0,23.235-11.031,23.235-24.626c0-13.615-10.42-24.645-23.235-24.645    c-12.833,0-23.258,11.03-23.258,24.645C177.501,146.633,187.927,157.664,200.759,157.664z" style="fill:#FFFFFF;"/><path d="M311.549,108.393c-12.891,0-23.254,11.03-23.254,24.645c0,13.595,10.363,24.626,23.254,24.626    c12.832,0,23.234-11.031,23.234-24.626C334.783,119.423,324.381,108.393,311.549,108.393z" style="fill:#FFFFFF;"/><path d="M292.387,402.655c9.108,4.339,42.396,0,42.396,0c-0.405-56.06,0-221.311,0-221.311    c-79.353,89.889-157.282,0-157.282,0c-1.824,68.613,0,221.311,0,221.311c12.741,3.394,40.549-0.482,40.549-0.482    c1.853-47.844,0-158.02,0-158.02c41.046,20.794,75.223,0,75.223,0C291.017,318.576,292.387,402.655,292.387,402.655z" style="fill:#FFFFFF;"/><path d="M200.759,157.664c12.815,0,23.235-11.031,23.235-24.626c0-13.615-10.42-24.645-23.235-24.645    c-12.833,0-23.258,11.03-23.258,24.645C177.501,146.633,187.927,157.664,200.759,157.664z" style="fill:#FFFFFF;"/><path d="M311.549,108.393c-12.891,0-23.254,11.03-23.254,24.645c0,13.595,10.363,24.626,23.254,24.626    c12.832,0,23.234-11.031,23.234-24.626C334.783,119.423,324.381,108.393,311.549,108.393z" style="fill:#FFFFFF;"/><path d="M292.387,402.655c9.108,4.339,42.396,0,42.396,0c-0.405-56.06,0-221.311,0-221.311    c-79.353,89.889-157.282,0-157.282,0c-1.824,68.613,0,221.311,0,221.311c12.741,3.394,40.549-0.482,40.549-0.482    c1.853-47.844,0-158.02,0-158.02c41.046,20.794,75.223,0,75.223,0C291.017,318.576,292.387,402.655,292.387,402.655z" style="fill:#FFFFFF;"/><path d="M200.759,108.393c12.815,0,23.235,11.03,23.235,24.645c0,13.595-10.42,24.626-23.235,24.626    c-12.833,0-23.258-11.031-23.258-24.626C177.501,119.423,187.927,108.393,200.759,108.393 M200.759,98.516    c-18.271,0-33.135,15.486-33.135,34.522c0,19.025,14.864,34.503,33.135,34.503c18.258,0,33.112-15.478,33.112-34.503    C233.871,114.002,219.017,98.516,200.759,98.516L200.759,98.516z" style="fill:#1E3757;"/><path d="M311.549,108.393c12.832,0,23.234,11.03,23.234,24.645c0,13.595-10.402,24.626-23.234,24.626    c-12.891,0-23.254-11.031-23.254-24.626C288.295,119.423,298.658,108.393,311.549,108.393 M311.549,98.516    c-18.269,0-33.131,15.486-33.131,34.522c0,19.025,14.862,34.503,33.131,34.503c18.258,0,33.111-15.478,33.111-34.503    C344.66,114.002,329.807,98.516,311.549,98.516L311.549,98.516z" style="fill:#1E3757;"/><path d="M334.783,181.344c0,0-0.405,165.251,0,221.311c0,0-14.795,1.929-27.356,1.929    c-6.28,0-12.004-0.482-15.04-1.929c0,0-1.37-84.079,0.887-158.502c0,0-15.188,9.242-37.478,9.242    c-11.144,0-24.064-2.311-37.745-9.242c0,0,1.853,110.176,0,158.02c0,0-13.452,1.875-25.931,1.875    c-5.462,0-10.739-0.359-14.618-1.393c0,0-1.824-152.698,0-221.311c0,0,34.633,39.951,81.237,39.951    C282.039,221.295,308.334,211.306,334.783,181.344 M334.785,171.467c-2.779,0-5.494,1.174-7.406,3.341    c-21.445,24.293-44.539,36.61-68.641,36.61c-41.387,0-73.466-36.191-73.785-36.557c-1.913-2.191-4.65-3.386-7.454-3.387    c-1.118,0-2.247,0.19-3.338,0.583c-3.828,1.378-6.425,4.956-6.533,9.023c-1.808,68.017-0.021,220.163-0.003,221.692    c0.053,4.432,3.052,8.285,7.334,9.426c4.359,1.161,9.972,1.726,17.16,1.726c13.014,0,26.717-1.889,27.294-1.97    c4.737-0.66,8.321-4.62,8.506-9.4c1.433-37.002,0.651-111.722,0.225-143.606c9.018,2.874,18.271,4.324,27.651,4.324    c10.742,0,20.043-1.926,27.195-4.144c-1.65,69.677-0.492,142.902-0.479,143.688c0.062,3.75,2.242,7.143,5.628,8.756    c4.137,1.971,10.266,2.889,19.288,2.889c13.053,0,28.003-1.93,28.633-2.012c4.947-0.645,8.637-4.877,8.601-9.865    c-0.4-55.371-0.004-219.563,0-221.215c0.01-4.111-2.527-7.799-6.371-9.258C337.146,171.677,335.96,171.467,334.785,171.467    L334.785,171.467z" style="fill:#1E3757;"/><path d="M364.039,478.061H147.415c-62.448,0-113.253-50.818-113.253-113.283V148.179    c0-62.454,50.805-113.263,113.253-113.263h216.624c62.459,0,113.272,50.81,113.272,113.263v216.599    C477.312,427.242,426.498,478.061,364.039,478.061z M147.415,44.818c-56.988,0-103.351,46.367-103.351,103.36v216.599    c0,57.004,46.363,103.381,103.351,103.381h216.624c56.998,0,103.37-46.377,103.37-103.381V148.179    c0-56.993-46.372-103.36-103.37-103.36H147.415z" style="fill:#1E3757;"/></g></g><g id="Layer_1"/></svg>