<?xml version="1.0" ?><!DOCTYPE svg  PUBLIC '-//W3C//DTD SVG 1.1//EN'  'http://www.w3.org/Graphics/SVG/1.1/DTD/svg11.dtd'><svg height="512px" style="enable-background:new 0 0 512 512;" version="1.1" viewBox="0 0 512 512" width="512px" xml:space="preserve" xmlns="http://www.w3.org/2000/svg" xmlns:xlink="http://www.w3.org/1999/xlink"><g id="quora___x2C_"><g><path d="M492.871,374.968c0,65.451-53.089,118.482-118.585,118.482H137.159    c-65.487,0-118.556-53.031-118.556-118.482V138.009c0-65.432,53.069-118.483,118.556-118.483h237.127    c65.496,0,118.585,53.051,118.585,118.483V374.968z" style="fill:#C31F00;"/><path d="M127.288,241.836c0,73.719,57.487,133.441,128.451,133.441c10.422,0,20.572-1.33,30.26-3.779    c12.195,22.735,30.78,38.838,70.224,31.144v-22.62c0,0-25.317-6.518-32.999-24.665c36.589-23.508,60.962-65.566,60.962-113.521    c0-73.704-57.526-133.447-128.446-133.447C184.775,108.389,127.288,168.132,127.288,241.836z M191.091,225.097    c0-45.973,29.391-83.23,65.632-83.23c36.223,0,65.594,37.257,65.594,83.23c0,5.902,0,28.502,0,34.384    c0,22.288-6.908,42.497-18.16,57.443c-14.106-15.408-36.24-28.078-64.32-26.459v2.72v23.507c0,0,19.047,0.791,32.093,23.739    c-4.902,1.466-9.978,2.257-15.208,2.257c-36.241,0-65.632-37.238-65.632-83.207C191.091,253.599,191.091,230.999,191.091,225.097z    " style="fill:#FFFFFF;"/><path d="M127.288,241.836c0,73.719,57.487,133.441,128.451,133.441c10.422,0,20.572-1.33,30.26-3.779    c12.195,22.735,30.78,38.838,70.224,31.144v-22.62c0,0-25.317-6.518-32.999-24.665c36.589-23.508,60.962-65.566,60.962-113.521    c0-73.704-57.526-133.447-128.446-133.447C184.775,108.389,127.288,168.132,127.288,241.836z M191.091,225.097    c0-45.973,29.391-83.23,65.632-83.23c36.223,0,65.594,37.257,65.594,83.23c0,5.902,0,28.502,0,34.384    c0,22.288-6.908,42.497-18.16,57.443c-14.106-15.408-36.24-28.078-64.32-26.459v2.72v23.507c0,0,19.047,0.791,32.093,23.739    c-4.902,1.466-9.978,2.257-15.208,2.257c-36.241,0-65.632-37.238-65.632-83.207C191.091,253.599,191.091,230.999,191.091,225.097z    " style="fill:#FFFFFF;"/><path d="M255.739,108.389c70.92,0,128.446,59.743,128.446,133.447c0,47.954-24.373,90.013-60.962,113.521    c7.682,18.147,32.999,24.665,32.999,24.665v22.62c-6.801,1.327-12.978,1.945-18.613,1.945c-27.045,0-41.518-14.273-51.61-33.089    c-9.688,2.449-19.838,3.779-30.26,3.779c-70.964,0-128.451-59.723-128.451-133.441    C127.288,168.132,184.775,108.389,255.739,108.389 M256.723,342.688c5.23,0,10.305-0.791,15.208-2.257    c-13.046-22.948-32.093-23.739-32.093-23.739v-23.507v-2.72c1.63-0.094,3.237-0.14,4.827-0.14    c25.793,0.001,46.205,12.085,59.493,26.599c11.252-14.946,18.16-35.155,18.16-57.443c0-5.881,0-28.482,0-34.384    c0-45.973-29.371-83.23-65.594-83.23c-36.241,0-65.632,37.257-65.632,83.23c0,5.902,0,28.502,0,34.384    C191.091,305.449,220.482,342.688,256.723,342.688 M255.739,98.512c-37.029,0-71.816,14.956-97.954,42.112    c-26.036,27.052-40.375,62.996-40.375,101.212c0,38.222,14.339,74.167,40.375,101.215c26.135,27.151,60.922,42.104,97.953,42.104    c8.486,0,16.985-0.82,25.354-2.445c5.467,8.679,11.593,15.396,18.6,20.417c10.497,7.523,23.254,11.338,37.916,11.338    c6.366,0,13.265-0.716,20.504-2.128c4.639-0.905,7.986-4.969,7.986-9.694v-22.62c0-4.507-3.051-8.441-7.414-9.565    c-4.49-1.185-15.276-5.356-21.98-12.446c16.068-12.042,29.57-27.611,39.38-45.496c11.761-21.442,17.978-45.882,17.978-70.678    c0-38.211-14.344-74.156-40.39-101.212C327.531,113.468,292.751,98.512,255.739,98.512L255.739,98.512z M252.736,332.625    c-28.891-2.696-51.768-34.473-51.768-73.145v-34.384c0-40.447,25.012-73.354,55.755-73.354c30.722,0,55.717,32.906,55.717,73.354    v34.384c0,15.222-3.552,29.784-10.141,42.048c-12.126-10.129-31.322-21.079-57.635-21.08c-1.784,0-3.599,0.053-5.396,0.156    c-5.225,0.301-9.308,4.626-9.308,9.86v2.72v23.507c0,5.399,4.006,9.785,9.394,9.867    C240.207,326.641,246.078,327.38,252.736,332.625L252.736,332.625z" style="fill:#621000;"/><path d="M364.039,478.061H147.415c-62.448,0-113.253-50.818-113.253-113.283V148.179    c0-62.454,50.805-113.263,113.253-113.263h216.624c62.459,0,113.272,50.81,113.272,113.263v216.599    C477.312,427.242,426.498,478.061,364.039,478.061z M147.415,44.818c-56.988,0-103.351,46.367-103.351,103.36v216.599    c0,57.004,46.363,103.381,103.351,103.381h216.624c56.998,0,103.37-46.377,103.37-103.381V148.179    c0-56.993-46.372-103.36-103.37-103.36H147.415z" style="fill:#621000;"/></g></g><g id="Layer_1"/></svg>