<?xml version="1.0" ?><!DOCTYPE svg  PUBLIC '-//W3C//DTD SVG 1.1//EN'  'http://www.w3.org/Graphics/SVG/1.1/DTD/svg11.dtd'><svg height="512px" style="enable-background:new 0 0 512 512;" version="1.1" viewBox="0 0 512 512" width="512px" xml:space="preserve" xmlns="http://www.w3.org/2000/svg" xmlns:xlink="http://www.w3.org/1999/xlink"><g id="stumbleupon__x2C_"><g><path d="M492.871,374.968c0,65.451-53.089,118.482-118.585,118.482H137.149    c-65.477,0-118.546-53.031-118.546-118.482V138.009c0-65.432,53.069-118.483,118.546-118.483h237.137    c65.496,0,118.585,53.051,118.585,118.483V374.968z" style="fill:#FF4518;"/><path d="M237.542,301.302v-89.588c0-8.292,2.875-18.107,18.198-18.107c15.302,0,19.066,9.815,19.066,18.107    v17.086l17.85,9.642l28.118-9.642v-17.086c0-35.193-28.445-63.831-65.034-63.831c-36.57,0-64.841,28.637-64.841,63.831v89.588    c0,8.254-5.37,18.61-18.628,18.61c-13.257,0-18.699-10.356-18.699-18.61v-35.213h-46.045v35.213    c0,35.155,29.739,63.792,66.309,63.792C210.428,365.094,237.542,336.477,237.542,301.302z" style="fill:#FFFFFF;"/><path d="M358.309,301.302c0,8.254-5.116,18.417-18.894,18.417c-13.818,0-18.912-10.163-18.912-18.417    v-35.656l-27.537,9.604l-18.102-9.604v36.872c0,35.193,26.187,62.576,62.756,62.576c36.59,0,66.327-28.617,66.327-63.792v-35.656    h-45.639V301.302z" style="fill:#FFFFFF;"/><path d="M237.542,301.302v-89.588c0-8.292,2.875-18.107,18.198-18.107c15.302,0,19.066,9.815,19.066,18.107    v17.086l17.85,9.642l28.118-9.642v-17.086c0-35.193-28.445-63.831-65.034-63.831c-36.57,0-64.841,28.637-64.841,63.831v89.588    c0,8.254-5.37,18.61-18.628,18.61c-13.257,0-18.699-10.356-18.699-18.61v-35.213h-46.045v35.213    c0,35.155,29.739,63.792,66.309,63.792C210.428,365.094,237.542,336.477,237.542,301.302z" style="fill:#FFFFFF;"/><path d="M358.309,301.302c0,8.254-5.116,18.417-18.894,18.417c-13.818,0-18.912-10.163-18.912-18.417    v-35.656l-27.537,9.604l-18.102-9.604v36.872c0,35.193,26.187,62.576,62.756,62.576c36.59,0,66.327-28.617,66.327-63.792v-35.656    h-45.639V301.302z" style="fill:#FFFFFF;"/><path d="M255.74,147.883c36.588,0,65.034,28.637,65.034,63.831v17.086l-28.118,9.642l-17.85-9.642v-17.086    c0-8.292-3.764-18.107-19.066-18.107c-15.323,0-18.198,9.815-18.198,18.107v89.588c0,35.175-27.114,63.792-63.707,63.792    c-36.57,0-66.309-28.637-66.309-63.792v-35.213h46.045v35.213c0,8.254,5.442,18.61,18.699,18.61    c13.258,0,18.628-10.356,18.628-18.61v-89.588C190.899,176.52,219.17,147.883,255.74,147.883 M255.74,138.006    c-20.221,0-39.077,7.666-53.094,21.586c-13.944,13.848-21.624,32.358-21.624,52.121v89.588c0,2.049-0.631,8.733-8.751,8.733    c-8.397,0-8.822-7.275-8.822-8.733v-35.213c0-5.455-4.422-9.877-9.877-9.877h-46.045c-5.455,0-9.877,4.422-9.877,9.877v35.213    c0,40.621,34.177,73.669,76.186,73.669c41.262,0,73.583-32.359,73.583-73.669v-89.588c0-6.538,1.711-8.23,8.321-8.23    c6.785,0,9.189,2.154,9.189,8.23v17.086c0,3.629,1.99,6.965,5.183,8.69l17.85,9.642c1.457,0.787,3.072,1.187,4.694,1.187    c1.079,0,2.162-0.177,3.204-0.534l28.118-9.642c3.991-1.369,6.673-5.123,6.673-9.343v-17.086c0-19.76-7.716-38.275-21.728-52.135    C294.859,145.667,275.972,138.006,255.74,138.006L255.74,138.006z" style="fill:#80230C;"/><path d="M403.947,265.646v35.656c0,35.175-29.737,63.792-66.327,63.792    c-36.569,0-62.756-27.383-62.756-62.576v-36.872l18.102,9.604l27.537-9.604v35.656c0,8.254,5.094,18.417,18.912,18.417    c13.777,0,18.894-10.163,18.894-18.417v-35.656H403.947 M320.502,255.769c-1.093,0-2.192,0.181-3.252,0.551l-23.465,8.184    l-14.292-7.583c-1.45-0.769-3.04-1.152-4.629-1.152c-1.765,0-3.527,0.473-5.091,1.413c-2.97,1.786-4.786,4.998-4.786,8.464v36.872    c0,41.305,31.226,72.453,72.633,72.453c42.02,0,76.204-33.048,76.204-73.669v-35.656c0-5.455-4.422-9.877-9.877-9.877h-45.639    c-5.455,0-9.877,4.422-9.877,9.877v35.656c0,3.189-1.172,8.54-9.017,8.54c-7.861,0-9.035-5.351-9.035-8.54v-35.656    c0-3.199-1.549-6.2-4.157-8.053C324.529,256.391,322.525,255.769,320.502,255.769L320.502,255.769z" style="fill:#80230C;"/><path d="M364.039,478.061H147.415c-62.448,0-113.253-50.818-113.253-113.283V148.179    c0-62.454,50.805-113.263,113.253-113.263h216.624c62.459,0,113.272,50.81,113.272,113.263v216.599    C477.312,427.242,426.498,478.061,364.039,478.061z M147.415,44.818c-56.988,0-103.351,46.367-103.351,103.36v216.599    c0,57.004,46.363,103.381,103.351,103.381h216.624c56.998,0,103.37-46.377,103.37-103.381V148.179    c0-56.993-46.372-103.36-103.37-103.36H147.415z" style="fill:#80230C;"/></g></g><g id="Layer_1"/></svg>