<?xml version="1.0" ?><!DOCTYPE svg  PUBLIC '-//W3C//DTD SVG 1.1//EN'  'http://www.w3.org/Graphics/SVG/1.1/DTD/svg11.dtd'><svg height="512px" style="enable-background:new 0 0 512 512;" version="1.1" viewBox="0 0 512 512" width="512px" xml:space="preserve" xmlns="http://www.w3.org/2000/svg" xmlns:xlink="http://www.w3.org/1999/xlink"><g id="youtube__x2C__2__x2C_"><g><path d="M492.871,374.948c0,65.451-53.089,118.502-118.585,118.502H137.149    c-65.477,0-118.546-53.051-118.546-118.502V138.009c0-65.451,53.069-118.483,118.546-118.483h237.137    c65.496,0,118.585,53.032,118.585,118.483V374.948z" style="fill:#FF312E;"/><path d="M400.976,194.743c0,0-2.896-21.309-11.772-30.662c-11.27-12.284-23.91-12.38-29.679-13.074    c-41.51-3.124-103.708-3.124-103.708-3.124h-0.135c0,0-62.235,0-103.711,3.124c-5.79,0.694-18.411,0.791-29.7,13.074    c-8.876,9.353-11.772,30.662-11.772,30.662s-2.972,24.992-2.972,49.985v23.406c0,25.03,2.972,50.022,2.972,50.022    s2.896,21.271,11.772,30.643c11.289,12.304,26.11,11.898,32.691,13.191c23.717,2.372,100.778,3.104,100.778,3.104    s62.275-0.115,103.785-3.22c5.769-0.714,18.409-0.771,29.679-13.075c8.877-9.372,11.772-30.643,11.772-30.643    s2.972-24.992,2.972-50.022v-23.406C403.947,219.735,400.976,194.743,400.976,194.743z M225.152,296.559l-0.02-86.773    l80.086,43.544L225.152,296.559z" style="fill:#FFFFFF;"/><path d="M255.816,147.883c0,0,62.198,0,103.708,3.124c5.769,0.694,18.409,0.791,29.679,13.074    c8.877,9.353,11.772,30.662,11.772,30.662s2.972,24.992,2.972,49.985v23.406c0,25.03-2.972,50.022-2.972,50.022    s-2.896,21.271-11.772,30.643c-11.27,12.304-23.91,12.361-29.679,13.075c-41.51,3.104-103.785,3.22-103.785,3.22    s-77.062-0.731-100.778-3.104c-6.581-1.293-21.402-0.888-32.691-13.191c-8.876-9.372-11.772-30.643-11.772-30.643    s-2.972-24.992-2.972-50.022v-23.406c0-24.993,2.972-49.985,2.972-49.985s2.896-21.309,11.772-30.662    c11.289-12.284,23.91-12.38,29.7-13.074c41.476-3.124,103.711-3.124,103.711-3.124H255.816 M225.152,296.559l80.066-43.229    l-80.086-43.544L225.152,296.559 M255.816,138.006h-0.135c-0.626,0-63.085,0.036-104.453,3.152    c-0.145,0.011-0.29,0.025-0.434,0.042c-0.482,0.058-1.019,0.11-1.602,0.168c-6.942,0.688-21.379,2.122-34.146,15.977    c-10.712,11.356-13.996,33.568-14.335,36.068c-0.007,0.055-0.014,0.109-0.021,0.164c-0.124,1.044-3.041,25.864-3.041,51.151    v23.406c0,25.324,2.917,50.145,3.041,51.188c0.007,0.056,0.014,0.111,0.021,0.166c0.34,2.496,3.624,24.671,14.331,36.042    c11.793,12.813,26.645,14.672,34.628,15.671c1.333,0.167,2.592,0.325,3.387,0.48c0.305,0.061,0.612,0.105,0.921,0.137    c23.886,2.389,98.503,3.122,101.667,3.152c0.033,0,0.065,0,0.098,0c0.005,0,0.009,0,0.014,0    c0.626-0.001,63.113-0.151,104.503-3.247c0.159-0.012,0.318-0.027,0.477-0.048c0.5-0.062,1.059-0.116,1.668-0.178    c6.929-0.698,21.334-2.149,34.029-15.971c10.705-11.373,13.988-33.544,14.328-36.039c0.007-0.055,0.015-0.11,0.021-0.166    c0.124-1.044,3.041-25.864,3.041-51.188v-23.406c0-25.287-2.917-50.107-3.041-51.151c-0.006-0.055-0.013-0.109-0.021-0.164    c-0.34-2.5-3.623-24.71-14.335-36.067c-12.745-13.852-27.18-15.287-34.122-15.977c-0.584-0.058-1.12-0.111-1.602-0.168    c-0.146-0.018-0.292-0.032-0.438-0.043C318.864,138.042,256.442,138.006,255.816,138.006L255.816,138.006z M235.025,280.003    l-0.012-53.603l49.472,26.899L235.025,280.003L235.025,280.003z" style="fill:#801917;"/><path d="M364.039,478.061H147.415c-62.448,0-113.253-50.818-113.253-113.283V148.179    c0-62.454,50.805-113.263,113.253-113.263h216.624c62.459,0,113.272,50.81,113.272,113.263v216.599    C477.312,427.242,426.498,478.061,364.039,478.061z M147.415,44.818c-56.988,0-103.351,46.367-103.351,103.36v216.599    c0,57.004,46.363,103.381,103.351,103.381h216.624c56.998,0,103.37-46.377,103.37-103.381V148.179    c0-56.993-46.372-103.36-103.37-103.36H147.415z" style="fill:#801917;"/></g></g><g id="Layer_1"/></svg>