<?xml version="1.0" ?><!DOCTYPE svg  PUBLIC '-//W3C//DTD SVG 1.1//EN'  'http://www.w3.org/Graphics/SVG/1.1/DTD/svg11.dtd'><svg height="512px" style="enable-background:new 0 0 512 512;" version="1.1" viewBox="0 0 512 512" width="512px" xml:space="preserve" xmlns="http://www.w3.org/2000/svg" xmlns:xlink="http://www.w3.org/1999/xlink"><g id="deviantart__x2C_"><g><path d="M492.871,374.968c0,65.451-53.089,118.482-118.585,118.482H137.159    c-65.487,0-118.556-53.031-118.556-118.482V138.009c0-65.432,53.069-118.483,118.556-118.483h237.127    c65.496,0,118.585,53.051,118.585,118.483V374.968z" style="fill:#496759;"/><path d="M252.303,300.28l-37.38-77.826c67.1-19.747,123.141,20.653,123.141,20.653l-46.181,12.785    l-13.296-25.32c-12.524-2.353-26.786-3.105-41.954-0.501l31.456,65.504l135.857-40.106c0,0-49.268-79.316-196.241-53.707    c-0.868,0.174-1.621,0.386-2.47,0.521l-14.28-29.716l-42.286,4.956l17.252,36.138c-89.185,37.739-49.672,126.75-49.672,126.75    L252.303,300.28z M178.108,239.193l20.296,42.593l-45.335,12.516C153.069,294.302,139.956,264.629,178.108,239.193z" style="fill:#FFFFFF;"/><path d="M252.303,300.28l-37.38-77.826c67.1-19.747,123.141,20.653,123.141,20.653l-46.181,12.785    l-13.296-25.32c-12.524-2.353-26.786-3.105-41.954-0.501l31.456,65.504l135.857-40.106c0,0-49.268-79.316-196.241-53.707    c-0.868,0.174-1.621,0.386-2.47,0.521l-14.28-29.716l-42.286,4.956l17.252,36.138c-89.185,37.739-49.672,126.75-49.672,126.75    L252.303,300.28z M178.108,239.193l20.296,42.593l-45.335,12.516C153.069,294.302,139.956,264.629,178.108,239.193z" style="fill:#FFFFFF;"/><path d="M190.955,172.566l14.28,29.716c0.85-0.135,1.602-0.347,2.47-0.521    c20.435-3.561,38.967-5.093,55.755-5.092c103.952,0.005,140.486,58.799,140.486,58.799l-135.857,40.106l-31.456-65.504    c6.645-1.141,13.116-1.637,19.344-1.637c7.987,0,15.573,0.817,22.61,2.139l13.296,25.32l46.181-12.785    c0,0-36.187-26.093-85.227-26.09c-11.982,0-24.739,1.559-37.914,5.437l37.38,77.826l-136.054,40.13    c0,0-39.513-89.01,49.672-126.75l-17.252-36.138L190.955,172.566 M153.069,294.302l45.335-12.516l-20.296-42.593    C139.956,264.629,153.069,294.302,153.069,294.302 M190.958,162.689c-0.382,0-0.767,0.022-1.154,0.067l-42.286,4.956    c-3.165,0.371-5.957,2.247-7.497,5.037c-1.541,2.79-1.64,6.152-0.267,9.028l12.956,27.138    c-23.64,12.048-39.902,29.014-48.409,50.539c-16.202,40.998,2.131,83.188,2.919,84.964c1.618,3.645,5.208,5.871,9.026,5.871    c0.927,0,1.867-0.132,2.796-0.405l136.054-40.13c2.778-0.819,5.056-2.816,6.232-5.463c0.165-0.373,0.307-0.753,0.424-1.138    c1.765,1.475,4.01,2.3,6.335,2.3c0.928,0,1.869-0.131,2.798-0.405l135.857-40.106c2.956-0.873,5.336-3.076,6.434-5.957    c1.097-2.882,0.786-6.11-0.841-8.729c-0.42-0.675-10.54-16.704-34.186-32.412c-13.645-9.063-29.12-16.274-45.999-21.431    c-20.891-6.382-44.001-9.619-68.691-9.621c-16.694,0-34.357,1.487-52.585,4.423l-11.018-22.928    C198.199,164.838,194.719,162.689,190.958,162.689L190.958,162.689z M296.924,244.249l-6.262-11.926    c8.102,2.297,15.293,5.061,21.331,7.754L296.924,244.249L296.924,244.249z M160.774,281.928c-0.007-1.585,0.112-3.341,0.437-5.218    c1.375-7.943,5.82-15.384,13.25-22.208l9.958,20.899L160.774,281.928L160.774,281.928z" style="fill:#25342D;"/><path d="M364.039,478.061H147.415c-62.448,0-113.253-50.818-113.253-113.283V148.179    c0-62.454,50.805-113.263,113.253-113.263h216.624c62.459,0,113.272,50.81,113.272,113.263v216.599    C477.312,427.242,426.498,478.061,364.039,478.061z M147.415,44.818c-56.988,0-103.351,46.367-103.351,103.36v216.599    c0,57.004,46.363,103.381,103.351,103.381h216.624c56.998,0,103.37-46.377,103.37-103.381V148.179    c0-56.993-46.372-103.36-103.37-103.36H147.415z" style="fill:#25342D;"/></g></g><g id="Layer_1"/></svg>