<?xml version="1.0" ?><!DOCTYPE svg  PUBLIC '-//W3C//DTD SVG 1.1//EN'  'http://www.w3.org/Graphics/SVG/1.1/DTD/svg11.dtd'><svg height="512px" style="enable-background:new 0 0 512 512;" version="1.1" viewBox="0 0 512 512" width="512px" xml:space="preserve" xmlns="http://www.w3.org/2000/svg" xmlns:xlink="http://www.w3.org/1999/xlink"><g id="technorati__x2C_"><g><path d="M492.871,374.968c0,65.451-53.089,118.482-118.565,118.482H137.168    c-65.497,0-118.566-53.031-118.566-118.482V138.009c0-65.432,53.069-118.483,118.566-118.483h237.137    c65.477,0,118.565,53.051,118.565,118.483V374.968z" style="fill:#00BC00;"/><path d="M153.243,315.611l-8.646,88.977l80.11-49.482c16.095,4.454,33.231,6.942,51.042,6.942    c51.468,0,97.338-20.346,128.216-52.146V171.023c0-34.538-27.308-62.635-60.808-62.635h-182.34    c-32.662,26.786-53.311,64.602-53.311,106.796C107.507,254.1,124.953,289.327,153.243,315.611z M275.75,129.891    c58.762,0,108.454,39.07,108.454,85.294c0,46.262-49.692,85.289-108.454,85.289c-58.781,0-108.467-39.027-108.467-85.289    C167.283,168.96,216.969,129.891,275.75,129.891z" style="fill:#FFFFFF;"/><path d="M153.243,315.611l-8.646,88.977l80.11-49.482c16.095,4.454,33.231,6.942,51.042,6.942    c51.468,0,97.338-20.346,128.216-52.146V171.023c0-34.538-27.308-62.635-60.808-62.635h-182.34    c-32.662,26.786-53.311,64.602-53.311,106.796C107.507,254.1,124.953,289.327,153.243,315.611z M275.75,129.891    c58.762,0,108.454,39.07,108.454,85.294c0,46.262-49.692,85.289-108.454,85.289c-58.781,0-108.467-39.027-108.467-85.289    C167.283,168.96,216.969,129.891,275.75,129.891z" style="fill:#FFFFFF;"/><path d="M343.158,108.389c33.5,0,60.808,28.097,60.808,62.635v138.879    c-30.878,31.8-76.748,52.146-128.216,52.146c-17.812,0-34.948-2.488-51.042-6.942l-80.11,49.482l8.646-88.977    c-28.291-26.284-45.736-61.511-45.736-100.427c0-42.194,20.649-80.01,53.311-106.796H343.158 M275.75,300.474    c58.762,0,108.454-39.027,108.454-85.289c0-46.224-49.692-85.294-108.454-85.294c-58.781,0-108.467,39.07-108.467,85.294    C167.283,261.446,216.969,300.474,275.75,300.474 M343.158,98.512h-182.34c-2.284,0-4.497,0.792-6.263,2.24    c-17.685,14.503-31.625,31.582-41.434,50.76c-10.278,20.098-15.49,41.521-15.49,63.673c0,38.593,16.055,75.43,45.318,104.246    l-8.181,84.202c-0.363,3.735,1.422,7.354,4.608,9.338c1.598,0.996,3.411,1.494,5.223,1.494c1.8,0,3.6-0.491,5.19-1.474    l76.496-47.25c16.183,4.104,32.801,6.184,49.466,6.184c51.959,0,101.274-20.099,135.302-55.142    c1.79-1.844,2.791-4.312,2.791-6.881V171.023C413.843,131.041,382.134,98.512,343.158,98.512L343.158,98.512z M275.75,290.597    c-25.851,0-51.428-8.45-70.173-23.185c-18.325-14.405-28.417-32.953-28.417-52.228c0-19.262,10.093-37.806,28.419-52.217    c18.75-14.744,44.327-23.2,70.171-23.2c25.837,0,51.408,8.456,70.157,23.2c18.327,14.412,28.42,32.957,28.42,52.217    c0,19.274-10.093,37.822-28.418,52.228C327.165,282.146,301.593,290.597,275.75,290.597L275.75,290.597z" style="fill:#005E00;"/><path d="M364.039,478.061H147.415c-62.448,0-113.253-50.818-113.253-113.283V148.179    c0-62.454,50.805-113.263,113.253-113.263h216.624c62.459,0,113.272,50.81,113.272,113.263v216.599    C477.312,427.242,426.498,478.061,364.039,478.061z M147.415,44.818c-56.988,0-103.351,46.367-103.351,103.36v216.599    c0,57.004,46.363,103.381,103.351,103.381h216.624c56.998,0,103.37-46.377,103.37-103.381V148.179    c0-56.993-46.372-103.36-103.37-103.36H147.415z" style="fill:#005E00;"/></g></g><g id="Layer_1"/></svg>