<?xml version="1.0" ?><!DOCTYPE svg  PUBLIC '-//W3C//DTD SVG 1.1//EN'  'http://www.w3.org/Graphics/SVG/1.1/DTD/svg11.dtd'><svg height="512px" style="enable-background:new 0 0 512 512;" version="1.1" viewBox="0 0 512 512" width="512px" xml:space="preserve" xmlns="http://www.w3.org/2000/svg" xmlns:xlink="http://www.w3.org/1999/xlink"><g id="lastfm__x2C_"><path d="M492.871,374.968c0,65.432-53.089,118.482-118.565,118.482H137.168   c-65.497,0-118.566-53.051-118.566-118.482V138.009c0-65.451,53.069-118.483,118.566-118.483h237.137   c65.477,0,118.565,53.032,118.565,118.483V374.968z" style="fill:#FD0016;"/><path d="M342.194,317.462c-20.554-0.694-26.805-11.551-34.641-29.351   c-13.257-30.136-28.348-65.348-28.482-65.676c-15.149-34.847-45.177-54.806-82.383-54.806c-49.176,0-89.162,39.879-89.162,88.881   c0,48.977,39.986,88.836,89.162,88.836c26.805,0,51.93-11.841,68.931-32.513c0.503-0.598,0.618-1.408,0.31-2.121l-11.231-25.841   c-0.329-0.733-1.042-1.215-1.833-1.234c-0.811-0.038-1.544,0.405-1.911,1.1c-10.594,20.209-31.398,32.764-54.265,32.764   c-33.738,0-61.179-27.364-61.179-60.99c0-33.651,27.441-60.996,61.179-60.996c24.546,0,47.048,14.521,56.002,36.196l27.79,63.189   l3.201,7.096c12.583,29.177,31.031,42.252,59.959,42.348c34.389,0,60.307-22.697,60.307-52.799   c0-30.233-16.771-41.572-45.717-51.001c-2.605-0.829-5.113-1.62-7.526-2.391c-18.468-5.766-29.583-9.257-29.583-23.585   c0-11.589,8.974-20.017,21.361-20.017c9.496,0,16.559,3.934,22.907,12.785c0.599,0.81,1.697,1.1,2.625,0.637l18.642-9.488   c0.481-0.25,0.867-0.694,1.023-1.234c0.173-0.541,0.096-1.119-0.174-1.621c-9.978-17.645-24.355-26.245-43.98-26.245   c-29.854,0-49.15,17.992-49.15,45.857c0,28.483,18.66,39.996,53.087,51.271c19.955,6.634,28.772,10.144,28.772,24.298   C376.234,306.702,361.839,318.138,342.194,317.462z" style="fill:#FFFFFF;"/><path d="M342.194,317.462c-20.554-0.694-26.805-11.551-34.641-29.351   c-13.257-30.136-28.348-65.348-28.482-65.676c-15.149-34.847-45.177-54.806-82.383-54.806c-49.176,0-89.162,39.879-89.162,88.881   c0,48.977,39.986,88.836,89.162,88.836c26.805,0,51.93-11.841,68.931-32.513c0.503-0.598,0.618-1.408,0.31-2.121l-11.231-25.841   c-0.329-0.733-1.042-1.215-1.833-1.234c-0.811-0.038-1.544,0.405-1.911,1.1c-10.594,20.209-31.398,32.764-54.265,32.764   c-33.738,0-61.179-27.364-61.179-60.99c0-33.651,27.441-60.996,61.179-60.996c24.546,0,47.048,14.521,56.002,36.196l27.79,63.189   l3.201,7.096c12.583,29.177,31.031,42.252,59.959,42.348c34.389,0,60.307-22.697,60.307-52.799   c0-30.233-16.771-41.572-45.717-51.001c-2.605-0.829-5.113-1.62-7.526-2.391c-18.468-5.766-29.583-9.257-29.583-23.585   c0-11.589,8.974-20.017,21.361-20.017c9.496,0,16.559,3.934,22.907,12.785c0.599,0.81,1.697,1.1,2.625,0.637l18.642-9.488   c0.481-0.25,0.867-0.694,1.023-1.234c0.173-0.541,0.096-1.119-0.174-1.621c-9.978-17.645-24.355-26.245-43.98-26.245   c-29.854,0-49.15,17.992-49.15,45.857c0,28.483,18.66,39.996,53.087,51.271c19.955,6.634,28.772,10.144,28.772,24.298   C376.234,306.702,361.839,318.138,342.194,317.462z" style="fill:#FFFFFF;"/><path d="M196.688,167.63c37.206,0,67.233,19.958,82.383,54.806c0.135,0.328,15.226,35.54,28.482,65.676   c7.836,17.8,14.087,28.656,34.641,29.351c0.554,0.02,1.101,0.028,1.646,0.028c18.796,0,32.394-11.236,32.394-26.679   c0-14.154-8.817-17.664-28.772-24.298c-34.427-11.276-53.087-22.789-53.087-51.271c0-27.865,19.296-45.857,49.15-45.857   c19.625,0,34.003,8.601,43.98,26.245c0.27,0.501,0.347,1.08,0.174,1.621c-0.156,0.54-0.542,0.983-1.023,1.234l-18.642,9.488   c-0.3,0.149-0.618,0.221-0.932,0.221c-0.654,0-1.288-0.31-1.693-0.858c-6.349-8.851-13.411-12.785-22.907-12.785   c-12.388,0-21.361,8.427-21.361,20.017c0,14.329,11.115,17.819,29.583,23.585c2.413,0.771,4.921,1.562,7.526,2.391   c28.946,9.43,45.717,20.768,45.717,51.001c0,30.102-25.918,52.799-60.307,52.799c-28.928-0.096-47.376-13.171-59.959-42.348   l-3.201-7.096l-27.79-63.189c-8.955-21.675-31.457-36.196-56.002-36.196c-33.738,0-61.179,27.345-61.179,60.996   c0,33.626,27.441,60.99,61.179,60.99c22.867,0,43.671-12.555,54.265-32.764c0.352-0.667,1.042-1.102,1.814-1.102   c0.032,0,0.064,0,0.097,0.002c0.791,0.02,1.504,0.501,1.833,1.234l11.231,25.841c0.309,0.713,0.193,1.523-0.31,2.121   c-17.001,20.672-42.126,32.513-68.931,32.513c-49.176,0-89.162-39.859-89.162-88.836   C107.526,207.509,147.512,167.63,196.688,167.63 M196.688,157.753c-54.61,0-99.039,44.303-99.039,98.758   c0,54.431,44.429,98.713,99.039,98.713c29.766,0,57.66-13.153,76.536-36.087c2.886-3.474,3.564-8.197,1.769-12.348l-0.405-0.933   l0.058,0.128c14.169,32.799,36.085,48.128,68.963,48.236c19.058,0,36.657-6.235,49.588-17.558   c13.302-11.646,20.628-27.67,20.628-45.118c0-17.108-4.875-30.289-14.904-40.294c-8.18-8.16-19.433-14.17-37.63-20.098   c-0.021-0.007-0.043-0.014-0.064-0.021l-3.203-1.017c-1.47-0.466-2.907-0.922-4.313-1.371c-0.021-0.006-0.041-0.013-0.063-0.02   c-19.686-6.146-22.649-7.999-22.649-14.157c0-6.065,4.615-10.14,11.484-10.14c5.202,0,9.723,1.474,14.881,8.665   c0.027,0.038,0.056,0.076,0.083,0.113c2.251,3.046,5.854,4.865,9.637,4.865c1.841,0,3.687-0.435,5.338-1.258   c0.024-0.012,0.049-0.025,0.074-0.038l18.642-9.488c0.026-0.013,0.053-0.027,0.079-0.041c2.843-1.479,4.992-4.07,5.914-7.122   c0.925-3.019,0.59-6.353-0.924-9.17c-0.034-0.063-0.067-0.124-0.103-0.186c-11.729-20.743-29.42-31.26-52.578-31.26   c-33.839,0-57.035,20.577-58.905,51.637c-8.104-15.528-19.398-28.358-32.999-37.404   C235.895,163.281,216.899,157.753,196.688,157.753L196.688,157.753z M196.688,307.624c-28.288,0-51.302-22.93-51.302-51.113   c0-28.187,23.014-51.119,51.302-51.119c20.601,0,39.438,12.092,46.874,30.091c0.029,0.068,0.058,0.137,0.087,0.205l19.071,43.366   c-2.12-3.144-5.664-5.156-9.506-5.286c-0.149-0.006-0.298-0.008-0.447-0.008c-4.435-0.001-8.478,2.44-10.551,6.371   C233.322,297.097,215.881,307.624,196.688,307.624L196.688,307.624z M343.841,307.613c-0.434,0-0.867-0.008-1.308-0.022   c-13.876-0.469-17.999-5.42-25.939-23.459c-3.872-8.802-7.863-17.952-11.588-26.526c8.83,6.653,20.963,12.262,39.382,18.295   c21.162,7.035,21.97,8.756,21.97,14.911C366.357,300.704,357.098,307.613,343.841,307.613L343.841,307.613z" style="fill:#7F000B;"/><path d="M364.039,478.061H147.415c-62.448,0-113.253-50.818-113.253-113.283V148.179   c0-62.454,50.805-113.263,113.253-113.263h216.624c62.459,0,113.272,50.81,113.272,113.263v216.599   C477.312,427.242,426.498,478.061,364.039,478.061z M147.415,44.818c-56.988,0-103.351,46.367-103.351,103.36v216.599   c0,57.004,46.363,103.381,103.351,103.381h216.624c56.998,0,103.37-46.377,103.37-103.381V148.179   c0-56.993-46.372-103.36-103.37-103.36H147.415z" style="fill:#7F000B;"/></g><g id="Layer_1"/></svg>