<?xml version="1.0" ?><!DOCTYPE svg  PUBLIC '-//W3C//DTD SVG 1.1//EN'  'http://www.w3.org/Graphics/SVG/1.1/DTD/svg11.dtd'><svg height="512px" style="enable-background:new 0 0 512 512;" version="1.1" viewBox="0 0 512 512" width="512px" xml:space="preserve" xmlns="http://www.w3.org/2000/svg" xmlns:xlink="http://www.w3.org/1999/xlink"><g id="reddit__x2C_"><g><path d="M492.871,374.948c0,65.451-53.089,118.502-118.565,118.502H137.168    c-65.497,0-118.566-53.051-118.566-118.502V138.009c0-65.451,53.069-118.483,118.566-118.483h237.137    c65.477,0,118.565,53.032,118.565,118.483V374.948z" style="fill:#FF5C00;"/><path d="M239.895,211.521c0-8.234-6.889-14.907-15.399-14.907c-8.492,0-15.381,6.672-15.381,14.907    c0,8.254,6.89,14.926,15.381,14.926C233.006,226.447,239.895,219.774,239.895,211.521z" style="fill:#FFFFFF;"/><path d="M288.739,196.614c-8.491,0-15.382,6.672-15.382,14.907c0,8.254,6.891,14.926,15.382,14.926    c8.51,0,15.381-6.672,15.381-14.926C304.12,203.286,297.249,196.614,288.739,196.614z" style="fill:#FFFFFF;"/><path d="M310.931,128.271c0,10.915,9.147,19.805,20.437,19.805c11.271,0,20.437-8.909,20.437-19.843    s-9.165-19.843-20.437-19.843c-8.568,0-15.901,5.149-18.949,12.399l-42.147-9.777l-17.503,48.249    c-24.933,0.463-47.492,7-64.358,17.452c-4.579-3.818-10.252-6.017-16.331-6.017c-13.798,0-25.03,10.896-25.03,24.298    c0,8.292,4.41,15.948,11.55,20.402c-0.435,2.411-0.714,4.86-0.714,7.367c0,23.835,20.273,44.617,50.17,55.494    c-16.171,9.7-26.568,24.221-26.568,40.496c0,17.877,12.365,34.385,33.09,44.161l0.309-0.578c0.907,3.837,1.93,7.501,3.126,10.896    h-8.318c-7.237,0-13.104,2.218-17.387,6.615c-7.927,8.118-7.367,20.595-7.349,21.134l0.203,3.606h139.954l0.115-3.683    c0.02-0.54,0.386-13.403-7.621-21.443c-4.132-4.128-9.592-6.229-16.269-6.229h-8.434c1.37-3.818,2.508-7.965,3.551-12.265    l0.559,1.041c19.569-9.835,31.283-26.014,31.283-43.255c0-15.871-9.862-30.083-25.376-39.764c0-0.231,0.018-0.463,0.018-0.694    c29.951-10.876,50.271-31.678,50.271-55.532c0-2.431-0.269-4.822-0.654-7.174c7.313-4.416,11.868-12.168,11.868-20.595    c0-13.402-11.252-24.298-25.05-24.298c-6.155,0-11.887,2.237-16.46,6.133c-16.288-10.125-37.921-16.584-61.851-17.472l14.28-39.34    L310.931,128.271z M331.367,116.025c6.928,0,12.583,5.477,12.583,12.207c0,6.73-5.655,12.207-12.583,12.207    c-6.967,0-12.601-5.477-12.601-12.207C318.767,121.502,324.4,116.025,331.367,116.025z M154.902,194.994    c0-9.18,7.71-16.662,17.175-16.662c3.522,0,6.842,1.021,9.659,2.912c-9.899,7.444-17.117,16.372-20.871,26.227    C157.17,204.328,154.902,199.854,154.902,194.994z M292.058,281.671c1.004,0.501,2.007,0.983,2.972,1.504    c-0.442,70.156-7.641,113.372-39.271,113.372c-35.063,0-39.078-53.321-39.31-114.336c0.541-0.271,1.159-0.482,1.737-0.733    c11.501,3.105,24.103,4.86,37.361,4.86C268.456,286.338,280.749,284.66,292.058,281.671z M189.335,318.754    c0-12.438,7.41-23.661,19.259-31.838c0.173,24.78,1.119,47.593,4.438,66.453C198.135,344.808,189.335,332.176,189.335,318.754z     M198,385.111c2.798-2.854,6.639-4.261,11.694-4.261h11.425c3.242,6.748,7.333,12.187,12.427,16.121h-40.525    C193.426,393.597,194.603,388.583,198,385.111z M301.341,380.851c4.516,0,7.969,1.271,10.594,3.895    c3.512,3.51,4.747,8.716,5.191,12.227h-39.793c5.018-3.973,9.128-9.392,12.39-16.121H301.341z M320.425,318.754    c0,12.901-8.239,25.205-22.191,33.729c3.416-18.841,4.458-41.172,4.651-64.274C313.729,296.25,320.425,306.952,320.425,318.754z     M255.546,278.701c-49.538,0-89.789-25.103-89.789-55.938c0-30.855,40.251-55.963,89.789-55.963    c49.519,0,89.793,25.108,89.793,55.963C345.34,253.599,305.065,278.701,255.546,278.701z M339.376,178.333    c9.476,0,17.175,7.482,17.175,16.662c0,4.975-2.392,9.545-6.252,12.689c-3.685-9.874-10.884-18.84-20.764-26.304    C332.391,179.413,335.787,178.333,339.376,178.333z" style="fill:#FFFFFF;"/><path d="M286.152,246.599c-0.097,0.077-9.455,9.025-30.8,9.025c-20.976,0-29.352-8.62-29.583-8.871    c-1.408-1.581-3.878-1.754-5.499-0.386c-1.679,1.35-1.854,3.78-0.444,5.381c0.425,0.462,10.459,11.512,35.527,11.512    c24.953,0,36.011-10.895,36.473-11.358c1.487-1.523,1.429-3.896-0.134-5.361C290.147,245.075,287.657,245.095,286.152,246.599z" style="fill:#FFFFFF;"/><path d="M239.895,211.521c0-8.234-6.889-14.907-15.399-14.907c-8.492,0-15.381,6.672-15.381,14.907    c0,8.254,6.89,14.926,15.381,14.926C233.006,226.447,239.895,219.774,239.895,211.521z" style="fill:#FFFFFF;"/><path d="M288.739,196.614c-8.491,0-15.382,6.672-15.382,14.907c0,8.254,6.891,14.926,15.382,14.926    c8.51,0,15.381-6.672,15.381-14.926C304.12,203.286,297.249,196.614,288.739,196.614z" style="fill:#FFFFFF;"/><path d="M310.931,128.271c0,10.915,9.147,19.805,20.437,19.805c11.271,0,20.437-8.909,20.437-19.843    s-9.165-19.843-20.437-19.843c-8.568,0-15.901,5.149-18.949,12.399l-42.147-9.777l-17.503,48.249    c-24.933,0.463-47.492,7-64.358,17.452c-4.579-3.818-10.252-6.017-16.331-6.017c-13.798,0-25.03,10.896-25.03,24.298    c0,8.292,4.41,15.948,11.55,20.402c-0.435,2.411-0.714,4.86-0.714,7.367c0,23.835,20.273,44.617,50.17,55.494    c-16.171,9.7-26.568,24.221-26.568,40.496c0,17.877,12.365,34.385,33.09,44.161l0.309-0.578c0.907,3.837,1.93,7.501,3.126,10.896    h-8.318c-7.237,0-13.104,2.218-17.387,6.615c-7.927,8.118-7.367,20.595-7.349,21.134l0.203,3.606h139.954l0.115-3.683    c0.02-0.54,0.386-13.403-7.621-21.443c-4.132-4.128-9.592-6.229-16.269-6.229h-8.434c1.37-3.818,2.508-7.965,3.551-12.265    l0.559,1.041c19.569-9.835,31.283-26.014,31.283-43.255c0-15.871-9.862-30.083-25.376-39.764c0-0.231,0.018-0.463,0.018-0.694    c29.951-10.876,50.271-31.678,50.271-55.532c0-2.431-0.269-4.822-0.654-7.174c7.313-4.416,11.868-12.168,11.868-20.595    c0-13.402-11.252-24.298-25.05-24.298c-6.155,0-11.887,2.237-16.46,6.133c-16.288-10.125-37.921-16.584-61.851-17.472l14.28-39.34    L310.931,128.271z M331.367,116.025c6.928,0,12.583,5.477,12.583,12.207c0,6.73-5.655,12.207-12.583,12.207    c-6.967,0-12.601-5.477-12.601-12.207C318.767,121.502,324.4,116.025,331.367,116.025z M154.902,194.994    c0-9.18,7.71-16.662,17.175-16.662c3.522,0,6.842,1.021,9.659,2.912c-9.899,7.444-17.117,16.372-20.871,26.227    C157.17,204.328,154.902,199.854,154.902,194.994z M292.058,281.671c1.004,0.501,2.007,0.983,2.972,1.504    c-0.442,70.156-7.641,113.372-39.271,113.372c-35.063,0-39.078-53.321-39.31-114.336c0.541-0.271,1.159-0.482,1.737-0.733    c11.501,3.105,24.103,4.86,37.361,4.86C268.456,286.338,280.749,284.66,292.058,281.671z M189.335,318.754    c0-12.438,7.41-23.661,19.259-31.838c0.173,24.78,1.119,47.593,4.438,66.453C198.135,344.808,189.335,332.176,189.335,318.754z     M198,385.111c2.798-2.854,6.639-4.261,11.694-4.261h11.425c3.242,6.748,7.333,12.187,12.427,16.121h-40.525    C193.426,393.597,194.603,388.583,198,385.111z M301.341,380.851c4.516,0,7.969,1.271,10.594,3.895    c3.512,3.51,4.747,8.716,5.191,12.227h-39.793c5.018-3.973,9.128-9.392,12.39-16.121H301.341z M320.425,318.754    c0,12.901-8.239,25.205-22.191,33.729c3.416-18.841,4.458-41.172,4.651-64.274C313.729,296.25,320.425,306.952,320.425,318.754z     M255.546,278.701c-49.538,0-89.789-25.103-89.789-55.938c0-30.855,40.251-55.963,89.789-55.963    c49.519,0,89.793,25.108,89.793,55.963C345.34,253.599,305.065,278.701,255.546,278.701z M339.376,178.333    c9.476,0,17.175,7.482,17.175,16.662c0,4.975-2.392,9.545-6.252,12.689c-3.685-9.874-10.884-18.84-20.764-26.304    C332.391,179.413,335.787,178.333,339.376,178.333z" style="fill:#FFFFFF;"/><path d="M286.152,246.599c-0.097,0.077-9.455,9.025-30.8,9.025c-20.976,0-29.352-8.62-29.583-8.871    c-1.408-1.581-3.878-1.754-5.499-0.386c-1.679,1.35-1.854,3.78-0.444,5.381c0.425,0.462,10.459,11.512,35.527,11.512    c24.953,0,36.011-10.895,36.473-11.358c1.487-1.523,1.429-3.896-0.134-5.361C290.147,245.075,287.657,245.095,286.152,246.599z" style="fill:#FFFFFF;"/><path d="M224.496,196.614c8.51,0,15.399,6.672,15.399,14.907c0,8.254-6.889,14.926-15.399,14.926    c-8.492,0-15.381-6.672-15.381-14.926C209.115,203.286,216.004,196.614,224.496,196.614 M224.496,186.737    c-13.928,0-25.258,11.118-25.258,24.784c0,13.677,11.331,24.803,25.258,24.803c13.937,0,25.276-11.126,25.276-24.803    C249.772,197.854,238.433,186.737,224.496,186.737L224.496,186.737z M288.739,196.614c8.51,0,15.381,6.672,15.381,14.907    c0,8.254-6.871,14.926-15.381,14.926c-8.491,0-15.382-6.672-15.382-14.926C273.357,203.286,280.248,196.614,288.739,196.614     M288.739,186.737c-13.928,0-25.259,11.118-25.259,24.784c0,13.677,11.331,24.803,25.259,24.803    c13.927,0,25.258-11.126,25.258-24.803C313.997,197.854,302.666,186.737,288.739,186.737L288.739,186.737z M331.367,108.389    c11.271,0,20.437,8.909,20.437,19.843s-9.165,19.843-20.437,19.843c-11.289,0-20.437-8.89-20.437-19.805l-35.585-8.254    l-14.28,39.34c23.93,0.887,45.563,7.347,61.851,17.472c4.573-3.896,10.305-6.133,16.46-6.133c13.798,0,25.05,10.896,25.05,24.298    c0,8.427-4.555,16.179-11.868,20.595c0.386,2.353,0.654,4.744,0.654,7.174c0,23.854-20.319,44.656-50.271,55.532    c0,0.231-0.018,0.463-0.018,0.694c15.514,9.681,25.376,23.893,25.376,39.764c0,17.241-11.714,33.42-31.283,43.255l-0.559-1.041    c-1.043,4.3-2.181,8.446-3.551,12.265h8.434c6.677,0,12.137,2.102,16.269,6.229c8.007,8.04,7.641,20.903,7.621,21.443    l-0.115,3.683H185.161l-0.203-3.606c-0.019-0.539-0.579-13.016,7.349-21.134c4.283-4.397,10.15-6.615,17.387-6.615h8.318    c-1.196-3.395-2.22-7.059-3.126-10.896l-0.309,0.578c-20.726-9.776-33.09-26.284-33.09-44.161    c0-16.275,10.396-30.796,26.568-40.496c-29.897-10.877-50.17-31.659-50.17-55.494c0-2.507,0.28-4.956,0.714-7.367    c-7.14-4.455-11.55-12.11-11.55-20.402c0-13.402,11.231-24.298,25.03-24.298c6.079,0,11.752,2.199,16.331,6.017    c16.866-10.452,39.426-16.989,64.358-17.452l17.503-48.249l42.147,9.777C315.466,113.538,322.799,108.389,331.367,108.389     M331.367,140.439c6.928,0,12.583-5.477,12.583-12.207c0-6.73-5.655-12.207-12.583-12.207c-6.967,0-12.601,5.477-12.601,12.207    C318.767,134.962,324.4,140.439,331.367,140.439 M255.546,278.701c49.519,0,89.793-25.103,89.793-55.938    c0-30.855-40.274-55.963-89.793-55.963c-49.538,0-89.789,25.108-89.789,55.963C165.758,253.599,206.009,278.701,255.546,278.701     M350.299,207.683c3.86-3.144,6.252-7.714,6.252-12.689c0-9.18-7.699-16.662-17.175-16.662c-3.589,0-6.985,1.08-9.841,3.047    C339.415,188.843,346.614,197.809,350.299,207.683 M160.866,207.471c3.754-9.855,10.971-18.783,20.871-26.227    c-2.817-1.89-6.137-2.912-9.659-2.912c-9.465,0-17.175,7.482-17.175,16.662C154.902,199.854,157.17,204.328,160.866,207.471     M255.758,396.547c31.631,0,38.829-43.216,39.271-113.372c-0.965-0.521-1.968-1.003-2.972-1.504    c-11.309,2.989-23.602,4.667-36.511,4.667c-13.258,0-25.86-1.755-37.361-4.86c-0.579,0.251-1.196,0.463-1.737,0.733    C216.68,343.226,220.694,396.547,255.758,396.547 M213.033,353.369c-3.319-18.86-4.265-41.673-4.438-66.453    c-11.849,8.177-19.259,19.399-19.259,31.838C189.335,332.176,198.135,344.808,213.033,353.369 M298.233,352.482    c13.952-8.523,22.191-20.827,22.191-33.729c0-11.802-6.695-22.504-17.54-30.546C302.691,311.311,301.649,333.642,298.233,352.482     M277.333,396.972h39.793c-0.444-3.511-1.68-8.717-5.191-12.227c-2.625-2.623-6.078-3.895-10.594-3.895h-11.618    C286.461,387.58,282.351,392.999,277.333,396.972 M193.021,396.972h40.525c-5.094-3.935-9.185-9.373-12.427-16.121h-11.425    c-5.055,0-8.896,1.406-11.694,4.261C194.603,388.583,193.426,393.597,193.021,396.972 M331.367,98.512    c-9.349,0-17.938,4.162-23.6,11.058l-35.266-8.18c-0.747-0.173-1.497-0.257-2.236-0.257c-4.074,0-7.838,2.534-9.28,6.51    l-15.242,42.016c-20.847,1.287-40.646,6.65-56.938,15.422c-5.133-2.804-10.811-4.262-16.728-4.262    c-19.248,0-34.907,15.331-34.907,34.175c0,9.501,3.997,18.385,10.936,24.777c-0.067,1.014-0.1,2.009-0.1,2.993    c0,22.866,15.301,44.027,40.894,57.755c-11.142,10.834-17.292,24.182-17.292,38.235c0,17.925,9.797,34.531,26.77,46.232    c-5.077,1.567-9.522,4.249-13.146,7.97c-10.261,10.508-10.251,25.471-10.145,28.363c0.002,0.063,0.006,0.152,0.01,0.216    l0.203,3.606c0.294,5.231,4.622,9.323,9.861,9.323h139.954c5.335,0,9.705-4.236,9.872-9.568l0.115-3.683    c0.063-1.752,0.323-17.859-10.495-28.722c-3.635-3.632-8.024-6.221-12.98-7.695c16.812-11.703,26.55-28.311,26.55-46.043    c0-13.827-5.989-27.029-16.834-37.784c26.106-13.719,41.746-35.09,41.746-58.206c0-0.877-0.025-1.76-0.079-2.665    c7.164-6.406,11.293-15.41,11.293-25.104c0-18.844-15.668-34.175-34.927-34.175c-5.904,0-11.708,1.519-16.879,4.359    c-13.831-7.456-30.279-12.485-47.728-14.628l6.873-18.934l20.563,4.77c3.615,12.434,15.32,21.566,29.162,21.566    c16.715,0,30.313-13.333,30.313-29.72S348.082,98.512,331.367,98.512L331.367,98.512z M331.367,130.562    c-1.502,0-2.724-1.045-2.724-2.33s1.222-2.33,2.724-2.33c1.467,0,2.706,1.067,2.706,2.33S332.834,130.562,331.367,130.562    L331.367,130.562z M255.546,268.824c-43.316,0-79.912-21.093-79.912-46.061c0-24.981,36.595-46.086,79.912-46.086    c43.319,0,79.917,21.105,79.917,46.086C335.463,247.731,298.865,268.824,255.546,268.824L255.546,268.824z M255.546,296.215    c10.008,0,19.889-0.942,29.487-2.809c-0.572,32.937-2.902,54.755-7.413,69.953c-6.131,20.661-14.904,23.311-21.862,23.311    c-7.546,0-16.997-3.056-23.154-26.882c-4.622-17.886-5.868-41.921-6.188-66.292C235.887,295.303,245.644,296.215,255.546,296.215    L255.546,296.215z M199.834,323.833c-0.411-1.678-0.622-3.375-0.622-5.079c0-0.949,0.065-1.896,0.193-2.839    C199.526,318.543,199.668,321.188,199.834,323.833L199.834,323.833z M222.816,245.444c1.093,0,2.182,0.444,2.953,1.309    c0.232,0.25,8.608,8.871,29.583,8.871c21.345,0,30.704-8.948,30.8-9.025c0.763-0.762,1.777-1.143,2.794-1.143    c0.991,0,1.983,0.361,2.745,1.084c1.563,1.465,1.621,3.838,0.134,5.361c-0.462,0.463-11.521,11.358-36.473,11.358    c-25.067,0-35.102-11.049-35.527-11.512c-1.409-1.601-1.235-4.031,0.444-5.381C221.003,245.748,221.911,245.444,222.816,245.444     M222.816,235.567L222.816,235.567c-3.227,0-6.356,1.127-8.828,3.177c-2.827,2.314-4.625,5.713-4.938,9.345    c-0.318,3.686,0.907,7.397,3.36,10.185c0.046,0.053,0.093,0.105,0.141,0.156c2.256,2.458,14.909,14.707,42.8,14.707    c28.417,0,42.008-12.799,43.464-14.258c0.025-0.025,0.051-0.052,0.076-0.077c2.586-2.649,3.965-6.133,3.884-9.81    c-0.081-3.676-1.611-7.098-4.31-9.638c-2.577-2.435-5.957-3.775-9.521-3.775c-3.573,0-6.934,1.335-9.503,3.768    c-0.717,0.609-7.956,6.399-24.091,6.399c-15.369,0-21.773-5.24-22.513-5.895C230.243,237.124,226.616,235.567,222.816,235.567    L222.816,235.567z M364.039,478.061H147.415c-62.448,0-113.253-50.818-113.253-113.283V148.179    c0-62.454,50.805-113.263,113.253-113.263h216.624c62.459,0,113.272,50.81,113.272,113.263v216.599    C477.312,427.242,426.498,478.061,364.039,478.061z M147.415,44.818c-56.988,0-103.351,46.367-103.351,103.36v216.599    c0,57.004,46.363,103.381,103.351,103.381h216.624c56.998,0,103.37-46.377,103.37-103.381V148.179    c0-56.993-46.372-103.36-103.37-103.36H147.415z" style="fill:#802E00;"/></g></g><g id="Layer_1"/></svg>