<?xml version="1.0" ?><!DOCTYPE svg  PUBLIC '-//W3C//DTD SVG 1.1//EN'  'http://www.w3.org/Graphics/SVG/1.1/DTD/svg11.dtd'><svg height="512px" style="enable-background:new 0 0 512 512;" version="1.1" viewBox="0 0 512 512" width="512px" xml:space="preserve" xmlns="http://www.w3.org/2000/svg" xmlns:xlink="http://www.w3.org/1999/xlink"><g id="aol__x2C_"><g><path d="M492.871,374.968c0,65.451-53.089,118.482-118.585,118.482H137.149    c-65.477,0-118.546-53.031-118.546-118.482V138.009c0-65.432,53.069-118.483,118.546-118.483h237.137    c65.496,0,118.585,53.051,118.585,118.483V374.968z" style="fill:#FDD029;"/><path d="M374.291,257.301c0,0-9.648-18.146-21.885-36.929c-19.934,18.069-40.582,15.042-49.363,13.113    c-11.579-2.546-14.724-7.482-13.779-11.841c-6.734-2.141-30.45-16.256-44.771-20.962c-27.557,16.913-38.615,59.144-37.303,102.104    c-18.487,35.387-32.242,47.323-70.008,56.098c7.082,16.777,9.958,23.083,20.495,45.338c47.236-12.882,77.418-40.806,95.982-64.68    c31.61,8.099,54.709,28.348,73.795,65.045c19.818-16.642,21.999-18.339,38.865-31.992c-13.142-31.703-45.427-59.126-76.148-74.07    c0.289-7.502,0.501-9.372,0.83-15.254C336.139,295.15,374.291,257.301,374.291,257.301z" style="fill:#FFFFFF;"/><path d="M253.158,150.525c0,23.256,19.298,42.136,42.379,42.136c23.062,0,42.647-18.879,42.647-42.136    c0-23.276-19.586-42.136-42.647-42.136C272.456,108.389,253.158,127.249,253.158,150.525z" style="fill:#FFFFFF;"/><path d="M374.291,257.301c0,0-9.648-18.146-21.885-36.929c-19.934,18.069-40.582,15.042-49.363,13.113    c-11.579-2.546-14.724-7.482-13.779-11.841c-6.734-2.141-30.45-16.256-44.771-20.962c-27.557,16.913-38.615,59.144-37.303,102.104    c-18.487,35.387-32.242,47.323-70.008,56.098c7.082,16.777,9.958,23.083,20.495,45.338c47.236-12.882,77.418-40.806,95.982-64.68    c31.61,8.099,54.709,28.348,73.795,65.045c19.818-16.642,21.999-18.339,38.865-31.992c-13.142-31.703-45.427-59.126-76.148-74.07    c0.289-7.502,0.501-9.372,0.83-15.254C336.139,295.15,374.291,257.301,374.291,257.301z" style="fill:#FFFFFF;"/><path d="M253.158,150.525c0,23.256,19.298,42.136,42.379,42.136c23.062,0,42.647-18.879,42.647-42.136    c0-23.276-19.586-42.136-42.647-42.136C272.456,108.389,253.158,127.249,253.158,150.525z" style="fill:#FFFFFF;"/><path d="M244.493,200.683c14.32,4.706,38.036,18.821,44.771,20.962c-0.944,4.358,2.2,9.295,13.779,11.841    c3.06,0.672,7.559,1.477,12.968,1.477c10.114,0,23.408-2.817,36.396-14.59c12.236,18.783,21.885,36.929,21.885,36.929    s-28.503,28.278-65.386,28.278c-5.786,0-11.782-0.696-17.903-2.308c-0.329,5.882-0.541,7.752-0.83,15.254    c30.722,14.944,63.007,42.367,76.148,74.07c-16.866,13.653-19.047,15.351-38.865,31.992    c-19.086-36.697-42.186-56.946-73.795-65.045c-18.564,23.874-48.746,51.798-95.982,64.68    c-10.537-22.255-13.413-28.561-20.495-45.338c37.766-8.774,51.521-20.711,70.008-56.098    C205.878,259.826,216.936,217.595,244.493,200.683 M244.494,190.806c-1.804,0-3.595,0.494-5.167,1.459    c-15.098,9.266-26.428,24.933-33.676,46.564c-5.943,17.737-8.835,38.996-8.398,61.63c-16.915,31.778-29.005,41.068-62.305,48.805    c-2.838,0.66-5.24,2.538-6.563,5.134c-1.324,2.596-1.434,5.644-0.301,8.328c7.316,17.333,10.448,24.14,20.667,45.724    c1.665,3.517,5.186,5.651,8.926,5.651c0.862,0,1.735-0.113,2.6-0.349c38.468-10.491,71.057-31.635,96.965-62.896    c25.835,8.371,44.971,26.602,61.451,58.289c1.383,2.658,3.897,4.545,6.836,5.13c0.64,0.127,1.285,0.189,1.927,0.189    c2.303,0,4.557-0.806,6.352-2.313c17.779-14.93,21.236-17.728,34.1-28.135l4.629-3.745c3.401-2.753,4.585-7.416,2.909-11.459    c-13.396-32.316-43.296-58.057-70.135-73.438c1.196,0.054,2.396,0.08,3.596,0.08c40.485,0,71.061-29.872,72.342-31.144    c3.094-3.068,3.811-7.802,1.765-11.649c-0.402-0.756-9.996-18.75-22.33-37.683c-1.579-2.423-4.141-4.033-7.01-4.404    c-0.422-0.055-0.846-0.082-1.266-0.082c-2.438,0-4.806,0.902-6.634,2.559c-8.807,7.983-18.82,12.031-29.762,12.031    c-4.634,0-8.411-0.712-10.85-1.247c-3.344-0.735-5.138-1.563-6.02-2.087c0.049-4.262-2.679-8.182-6.886-9.52    c-1.991-0.633-8.194-3.831-13.668-6.653c-9.742-5.023-21.868-11.275-31.011-14.279C246.57,190.969,245.53,190.806,244.494,190.806    L244.494,190.806z" style="fill:#7F6815;"/><path d="M295.537,108.389c23.062,0,42.647,18.86,42.647,42.136c0,23.256-19.586,42.136-42.647,42.136    c-23.081,0-42.379-18.879-42.379-42.136C253.158,127.249,272.456,108.389,295.537,108.389 M295.537,98.512    c-13.817,0-26.883,5.396-36.79,15.194c-9.973,9.863-15.466,22.939-15.466,36.819c0,13.872,5.492,26.945,15.465,36.811    c9.909,9.803,22.976,15.202,36.791,15.202c13.809,0,26.908-5.388,36.887-15.171c10.084-9.887,15.638-22.971,15.638-36.842    c0-13.879-5.554-26.966-15.639-36.851C322.446,103.896,309.347,98.512,295.537,98.512L295.537,98.512z" style="fill:#7F6815;"/><path d="M364.039,478.061H147.415c-62.448,0-113.253-50.818-113.253-113.283V148.179    c0-62.454,50.805-113.263,113.253-113.263h216.624c62.459,0,113.272,50.81,113.272,113.263v216.599    C477.312,427.242,426.498,478.061,364.039,478.061z M147.415,44.818c-56.988,0-103.351,46.367-103.351,103.36v216.599    c0,57.004,46.363,103.381,103.351,103.381h216.624c56.998,0,103.37-46.377,103.37-103.381V148.179    c0-56.993-46.372-103.36-103.37-103.36H147.415z" style="fill:#7F6815;"/></g></g><g id="Layer_1"/></svg>