<?xml version="1.0" ?><!DOCTYPE svg  PUBLIC '-//W3C//DTD SVG 1.1//EN'  'http://www.w3.org/Graphics/SVG/1.1/DTD/svg11.dtd'><svg height="512px" style="enable-background:new 0 0 512 512;" version="1.1" viewBox="0 0 512 512" width="512px" xml:space="preserve" xmlns="http://www.w3.org/2000/svg" xmlns:xlink="http://www.w3.org/1999/xlink"><g id="tumblr__x2C_"><g><path d="M492.871,374.968c0,65.432-53.089,118.482-118.585,118.482H137.149    c-65.477,0-118.546-53.051-118.546-118.482V138.009c0-65.432,53.069-118.483,118.546-118.483h237.137    c65.496,0,118.585,53.051,118.585,118.483V374.968z" style="fill:#0F4260;"/><path d="M209.367,364.651c2.721,7.135,7.565,13.865,14.627,20.189c7.005,6.287,15.477,11.185,25.435,14.638    c9.938,3.395,17.58,5.109,30.549,5.109c11.386,0,21.999-1.215,31.803-3.606c9.822-2.391,20.803-6.595,32.883-12.553v-46.688    c-14.183,9.739-28.463,14.617-42.782,14.617c-8.085,0-15.208-1.986-21.498-5.92c-4.728-2.893-9.069-7.926-10.788-12.767    c-1.736-4.858-1.524-14.771-1.524-31.953v-75.956h65.478v-52.877H268.07v-68.497h-40.274c-1.814,15.273-5.133,27.866-9.938,37.739    c-4.805,9.893-11.154,18.359-19.104,25.437c-7.913,7.058-20.827,12.477-31.942,16.256v41.943h38.484v103.878    C205.295,347.18,206.646,357.515,209.367,364.651z" style="fill:#FFFFFF;"/><path d="M209.367,364.651c2.721,7.135,7.565,13.865,14.627,20.189c7.005,6.287,15.477,11.185,25.435,14.638    c9.938,3.395,17.58,5.109,30.549,5.109c11.386,0,21.999-1.215,31.803-3.606c9.822-2.391,20.803-6.595,32.883-12.553v-46.688    c-14.183,9.739-28.463,14.617-42.782,14.617c-8.085,0-15.208-1.986-21.498-5.92c-4.728-2.893-9.069-7.926-10.788-12.767    c-1.736-4.858-1.524-14.771-1.524-31.953v-75.956h65.478v-52.877H268.07v-68.497h-40.274c-1.814,15.273-5.133,27.866-9.938,37.739    c-4.805,9.893-11.154,18.359-19.104,25.437c-7.913,7.058-20.827,12.477-31.942,16.256v41.943h38.484v103.878    C205.295,347.18,206.646,357.515,209.367,364.651z" style="fill:#FFFFFF;"/><path d="M268.07,108.389v68.497h65.478v52.877H268.07v75.956c0,17.183-0.212,27.095,1.524,31.953    c1.719,4.841,6.061,9.874,10.788,12.767c6.29,3.934,13.413,5.92,21.498,5.92c14.319,0,28.6-4.878,42.782-14.617v46.688    c-12.08,5.958-23.061,10.162-32.883,12.553c-9.804,2.392-20.417,3.606-31.803,3.606c-12.969,0-20.61-1.715-30.549-5.109    c-9.958-3.453-18.429-8.351-25.435-14.638c-7.063-6.324-11.907-13.055-14.627-20.189c-2.721-7.137-4.072-17.472-4.072-31.01    V229.763h-38.484V187.82c11.116-3.78,24.03-9.198,31.942-16.256c7.95-7.078,14.3-15.543,19.104-25.437    c4.806-9.873,8.124-22.465,9.938-37.739H268.07 M268.07,98.512h-40.274c-5.004,0-9.218,3.743-9.808,8.712    c-1.675,14.104-4.708,25.739-9.011,34.581c-4.281,8.815-9.772,16.133-16.791,22.382c-3.783,3.375-11.801,8.585-28.555,14.283    c-4.004,1.361-6.697,5.122-6.697,9.351v41.943c0,5.455,4.422,9.877,9.877,9.877h28.607v94.001c0,14.904,1.544,26.199,4.72,34.528    c3.292,8.632,9.101,16.717,17.268,24.029c7.984,7.166,17.673,12.757,28.788,16.611c10.5,3.587,19.374,5.654,33.785,5.654    c12.081,0,23.568-1.308,34.144-3.888c10.433-2.539,22.18-7.011,34.911-13.29c3.372-1.664,5.508-5.098,5.508-8.858v-46.688    c0-3.667-2.031-7.032-5.276-8.74c-1.445-0.761-3.025-1.137-4.6-1.137c-1.962,0-3.915,0.583-5.592,1.734    c-12.448,8.549-24.961,12.883-37.191,12.883c-6.189,0-11.508-1.445-16.261-4.417c-0.027-0.018-0.055-0.034-0.082-0.051    c-2.855-1.747-5.708-5.034-6.636-7.646c-0.987-2.762-0.975-12.41-0.959-23.583c0.002-1.613,0.004-3.302,0.004-5.065V239.64h55.601    c5.455,0,9.877-4.422,9.877-9.877v-52.877c0-5.455-4.422-9.877-9.877-9.877h-55.601v-58.62    C277.947,102.934,273.525,98.512,268.07,98.512L268.07,98.512z" style="fill:#0B3248;"/><path d="M364.039,478.061H147.415c-62.448,0-113.253-50.818-113.253-113.283V148.179    c0-62.454,50.805-113.263,113.253-113.263h216.624c62.459,0,113.272,50.81,113.272,113.263v216.599    C477.312,427.242,426.498,478.061,364.039,478.061z M147.415,44.818c-56.988,0-103.351,46.367-103.351,103.36v216.599    c0,57.004,46.363,103.381,103.351,103.381h216.624c56.998,0,103.37-46.377,103.37-103.381V148.179    c0-56.993-46.372-103.36-103.37-103.36H147.415z" style="fill:#0B3248;"/></g></g><g id="Layer_1"/></svg>