<?xml version="1.0" ?><!DOCTYPE svg  PUBLIC '-//W3C//DTD SVG 1.1//EN'  'http://www.w3.org/Graphics/SVG/1.1/DTD/svg11.dtd'><svg height="512px" style="enable-background:new 0 0 512 512;" version="1.1" viewBox="0 0 512 512" width="512px" xml:space="preserve" xmlns="http://www.w3.org/2000/svg" xmlns:xlink="http://www.w3.org/1999/xlink"><g id="blogger__x2C_"><g><path d="M492.871,374.968c0,65.451-53.089,118.482-118.565,118.482H137.149    c-65.477,0-118.546-53.031-118.546-118.482V138.009c0-65.432,53.069-118.483,118.546-118.483h237.157    c65.477,0,118.565,53.051,118.565,118.483V374.968z" style="fill:#FF6600;"/><path d="M201.455,404.588h107.952c51.68,0,93.69-42.078,93.98-93.432l0.56-75.607l-0.85-4.127l-2.527-5.149    l-4.168-3.259c-5.463-4.262-33.098,0.271-40.546-6.46c-5.286-4.84-6.098-13.556-7.68-25.32    c-2.972-22.891-4.864-24.067-8.434-31.78c-13.006-27.519-48.323-48.191-72.579-51.064h-65.709    c-51.685,0-93.929,42.155-93.929,93.605v109.162C107.526,362.51,149.77,404.588,201.455,404.588z M202.651,184.87h52.103    c9.919,0,17.988,8.042,17.988,17.857c0,9.777-8.068,17.896-17.988,17.896h-52.103c-9.938,0-17.991-8.119-17.991-17.896    C184.661,192.912,192.713,184.87,202.651,184.87z M202.651,291.969h105.848c9.901,0,17.908,8.002,17.908,17.818    c0,9.681-8.007,17.818-17.908,17.818H202.651c-9.938,0-17.991-8.138-17.991-17.818    C184.661,299.971,192.713,291.969,202.651,291.969z" style="fill:#FFFFFF;"/><path d="M201.455,404.588h107.952c51.68,0,93.69-42.078,93.98-93.432l0.56-75.607l-0.85-4.127l-2.527-5.149    l-4.168-3.259c-5.463-4.262-33.098,0.271-40.546-6.46c-5.286-4.84-6.098-13.556-7.68-25.32    c-2.972-22.891-4.864-24.067-8.434-31.78c-13.006-27.519-48.323-48.191-72.579-51.064h-65.709    c-51.685,0-93.929,42.155-93.929,93.605v109.162C107.526,362.51,149.77,404.588,201.455,404.588z M202.651,184.87h52.103    c9.919,0,17.988,8.042,17.988,17.857c0,9.777-8.068,17.896-17.988,17.896h-52.103c-9.938,0-17.991-8.119-17.991-17.896    C184.661,192.912,192.713,184.87,202.651,184.87z M202.651,291.969h105.848c9.901,0,17.908,8.002,17.908,17.818    c0,9.681-8.007,17.818-17.908,17.818H202.651c-9.938,0-17.991-8.138-17.991-17.818    C184.661,299.971,192.713,291.969,202.651,291.969z" style="fill:#FFFFFF;"/><path d="M267.164,108.389c24.256,2.873,59.573,23.546,72.579,51.064c3.569,7.713,5.462,8.89,8.434,31.78    c1.582,11.764,2.394,20.48,7.68,25.32c7.448,6.731,35.083,2.199,40.546,6.46l4.168,3.259l2.527,5.149l0.85,4.127l-0.56,75.607    c-0.29,51.354-42.301,93.432-93.98,93.432H201.455c-51.685,0-93.929-42.078-93.929-93.432V201.994    c0-51.45,42.244-93.605,93.929-93.605H267.164 M202.651,220.623h52.103c9.919,0,17.988-8.119,17.988-17.896    c0-9.815-8.068-17.857-17.988-17.857h-52.103c-9.938,0-17.991,8.042-17.991,17.857    C184.661,212.504,192.713,220.623,202.651,220.623 M202.651,327.605h105.848c9.901,0,17.908-8.138,17.908-17.818    c0-9.816-8.007-17.818-17.908-17.818H202.651c-9.938,0-17.991,8.002-17.991,17.818    C184.661,319.468,192.713,327.605,202.651,327.605 M267.164,98.512h-65.709c-27.624,0-53.662,10.793-73.32,30.391    c-19.659,19.6-30.486,45.558-30.486,73.091v109.162c0,27.49,10.829,53.407,30.492,72.975    c19.657,19.562,45.693,30.334,73.313,30.334h107.952c56.945,0,103.536-46.319,103.857-103.253l0.56-75.59    c0.005-0.693-0.063-1.386-0.203-2.065l-0.85-4.127c-0.168-0.818-0.439-1.611-0.808-2.36l-2.527-5.149    c-0.656-1.338-1.607-2.51-2.782-3.429l-4.168-3.259c-5-3.9-12.321-4.078-22.455-4.323c-5.261-0.127-14.979-0.363-17.676-1.81    c-2.151-2.28-3.084-9.332-4.071-16.786c-0.104-0.784-0.209-1.583-0.318-2.397c-2.638-20.316-4.646-25.143-7.967-31.922    c-0.416-0.85-0.847-1.728-1.292-2.69c-0.012-0.024-0.022-0.048-0.034-0.072c-14.576-30.841-53.055-53.42-80.347-56.653    C267.94,98.535,267.553,98.512,267.164,98.512L267.164,98.512z M202.651,210.746c-4.398,0-8.114-3.672-8.114-8.019    c0-4.4,3.64-7.98,8.114-7.98h52.103c4.472,0,8.111,3.58,8.111,7.98c0,4.347-3.714,8.019-8.111,8.019H202.651L202.651,210.746z     M202.651,317.729c-4.398,0-8.114-3.637-8.114-7.941c0-4.379,3.64-7.941,8.114-7.941h105.848c4.429,0,8.031,3.563,8.031,7.941    c0,4.305-3.678,7.941-8.031,7.941H202.651L202.651,317.729z" style="fill:#803300;"/><path d="M364.039,478.061H147.415c-62.448,0-113.253-50.818-113.253-113.283V148.179    c0-62.454,50.805-113.263,113.253-113.263h216.624c62.459,0,113.272,50.81,113.272,113.263v216.599    C477.312,427.242,426.498,478.061,364.039,478.061z M147.415,44.818c-56.988,0-103.351,46.367-103.351,103.36v216.599    c0,57.004,46.363,103.381,103.351,103.381h216.624c56.998,0,103.37-46.377,103.37-103.381V148.179    c0-56.993-46.372-103.36-103.37-103.36H147.415z" style="fill:#803300;"/></g></g><g id="Layer_1"/></svg>