<?xml version="1.0" ?><!DOCTYPE svg  PUBLIC '-//W3C//DTD SVG 1.1//EN'  'http://www.w3.org/Graphics/SVG/1.1/DTD/svg11.dtd'><svg height="512px" style="enable-background:new 0 0 512 512;" version="1.1" viewBox="0 0 512 512" width="512px" xml:space="preserve" xmlns="http://www.w3.org/2000/svg" xmlns:xlink="http://www.w3.org/1999/xlink"><g id="google__x2C_"><path d="M492.871,374.968c0,65.432-53.089,118.482-118.565,118.482H137.168   c-65.497,0-118.566-53.051-118.566-118.482V138.009c0-65.451,53.069-118.483,118.566-118.483h237.137   c65.477,0,118.565,53.032,118.565,118.483V374.968z" style="fill:#00B670;"/><path d="M284.938,315.509l62.449-1.813v52.974c0,7.502,0.115,8.716-12.563,12.728   c-17.812,4.57-37.939,5.477-56.33,3.953c-62.371-5.072-109.906-53.282-121.187-113.41   c-10.663-57.048,16.838-111.024,63.331-133.297c22.714-10.857,49.961-15.967,79.489-6.711   c18.544,5.785,35.334,16.218,49.981,30.624l-10.19,18.146l19.184-5.322l29.603-29.524c-50.231-40.69-136.436-46.031-193.539-17.78   c-49.668,24.549-85.793,73.338-87.569,127.835c-1.854,57.356,32.237,102.693,66.78,125.507   c57.107,37.662,156.086,29.254,215.698-0.155l-0.02-5.477h0.02v-60.089l13.875-15.91h-86.86L284.938,315.509z" style="fill:#FFFFFF;"/><path d="M284.938,315.509l62.449-1.813v52.974c0,7.502,0.115,8.716-12.563,12.728   c-17.812,4.57-37.939,5.477-56.33,3.953c-62.371-5.072-109.906-53.282-121.187-113.41   c-10.663-57.048,16.838-111.024,63.331-133.297c22.714-10.857,49.961-15.967,79.489-6.711   c18.544,5.785,35.334,16.218,49.981,30.624l-10.19,18.146l19.184-5.322l29.603-29.524c-50.231-40.69-136.436-46.031-193.539-17.78   c-49.668,24.549-85.793,73.338-87.569,127.835c-1.854,57.356,32.237,102.693,66.78,125.507   c57.107,37.662,156.086,29.254,215.698-0.155l-0.02-5.477h0.02v-60.089l13.875-15.91h-86.86L284.938,315.509z" style="fill:#FFFFFF;"/><path d="M276.849,108.384c40.91,0.002,82.521,11.709,111.855,35.471l-29.603,29.524l-19.184,5.322   l10.19-18.146c-14.647-14.406-31.438-24.839-49.981-30.624c-10.669-3.344-21.039-4.813-31.006-4.813   c-17.618,0-33.976,4.59-48.483,11.524c-46.493,22.273-73.993,76.25-63.331,133.297c11.28,60.128,58.815,108.338,121.187,113.41   c5.367,0.444,10.883,0.683,16.446,0.683c13.496,0,27.271-1.399,39.884-4.636c12.679-4.012,12.563-5.226,12.563-12.728v-52.974   l-62.449,1.813l32.15-17.723h86.86l-13.875,15.91v60.089h-0.02l0.02,5.477c-31.687,15.633-74.495,25.331-116.227,25.331   c-36.778,0-72.72-7.533-99.471-25.176c-34.543-22.813-68.633-68.15-66.78-125.507c1.775-54.498,37.901-103.286,87.569-127.835   C218.921,114.322,247.705,108.383,276.849,108.384 M403.949,297.786h0.005 M276.839,98.507c-31.551,0-61.305,6.471-86.053,18.715   c-26.337,13.018-48.973,32.34-65.455,55.875c-17.142,24.477-26.688,52.311-27.606,80.492c-0.908,28.099,6.391,56.125,21.107,81.05   c12.439,21.068,30.232,39.898,50.101,53.021c33.602,22.16,75.599,26.811,104.915,26.811c42.697,0,86.653-9.604,120.597-26.351   c3.384-1.669,5.521-5.12,5.507-8.893l-0.018-4.852c0.012-0.195,0.018-0.392,0.018-0.59v-56.387l11.346-13.01   c1.574-1.749,2.532-4.064,2.532-6.603c0-5.455-4.42-9.877-9.875-9.877h-0.005h-86.86c-1.667,0-3.308,0.422-4.769,1.228   l-32.15,17.723c-3.993,2.201-5.961,6.851-4.76,11.25c1.175,4.306,5.086,7.276,9.525,7.276c0.097,0,0.192-0.001,0.289-0.004   l52.286-1.518v42.806v0.202c0,0.365,0,0.761-0.002,1.142c-1.028,0.419-2.696,1.023-5.401,1.884   c-10.971,2.786-23.815,4.259-37.167,4.259c-5.177,0-10.436-0.219-15.631-0.649c-56.204-4.57-101.326-46.922-112.294-105.388   c-9.578-51.246,14.227-101.651,57.89-122.568c14.65-7.003,29.529-10.555,44.216-10.555c9.383,0,18.82,1.467,28.052,4.361   c14.606,4.557,28.204,12.325,40.52,23.137l-6.387,11.372c-1.953,3.479-1.622,7.791,0.839,10.93   c1.902,2.426,4.787,3.784,7.773,3.784c0.879,0,1.767-0.118,2.641-0.36l19.184-5.322c1.638-0.455,3.131-1.324,4.334-2.524   l29.603-29.524c1.983-1.978,3.034-4.705,2.89-7.503c-0.145-2.797-1.471-5.402-3.647-7.165   c-29.554-23.94-72.589-37.671-118.072-37.673v9.877v-9.877C276.847,98.507,276.841,98.507,276.839,98.507L276.839,98.507z" style="fill:#008954;"/><path d="M364.039,478.061H147.415c-62.448,0-113.253-50.818-113.253-113.283V148.179   c0-62.454,50.805-113.263,113.253-113.263h216.624c62.459,0,113.272,50.81,113.272,113.263v216.599   C477.312,427.242,426.498,478.061,364.039,478.061z M147.415,44.818c-56.988,0-103.351,46.367-103.351,103.36v216.599   c0,57.004,46.363,103.381,103.351,103.381h216.624c56.998,0,103.37-46.377,103.37-103.381V148.179   c0-56.993-46.372-103.36-103.37-103.36H147.415z" style="fill:#008954;"/></g><g id="Layer_1"/></svg>