<?xml version="1.0" ?><!DOCTYPE svg  PUBLIC '-//W3C//DTD SVG 1.1//EN'  'http://www.w3.org/Graphics/SVG/1.1/DTD/svg11.dtd'><svg height="512px" style="enable-background:new 0 0 512 512;" version="1.1" viewBox="0 0 512 512" width="512px" xml:space="preserve" xmlns="http://www.w3.org/2000/svg" xmlns:xlink="http://www.w3.org/1999/xlink"><g id="vimeo__x2C_"><path d="M492.871,374.968c0,65.432-53.089,118.482-118.565,118.482H137.168   c-65.497,0-118.566-53.051-118.566-118.482V138.009c0-65.451,53.069-118.483,118.566-118.483h237.137   c65.477,0,118.565,53.032,118.565,118.483V374.968z" style="fill:#00B2DE;"/><path d="M270.793,290.575c-8.259,0-14.627-21.463-24.083-59.009c-9.784-38.819-9.726-108.744-50.406-100.818   c-38.364,7.482-88.77,67.225-88.77,67.225l12.022,15.678c0,0,24.836-19.419,33.115-9.719   c8.279,9.719,39.869,126.966,50.406,148.604c9.225,18.994,34.602,44.083,62.448,26.148   c27.848-17.914,120.381-96.324,136.938-188.926c16.558-92.583-111.368-73.203-124.896,7.463   c33.85-20.19,51.932,8.215,34.602,40.324C294.877,269.651,279.073,290.575,270.793,290.575z" style="fill:#FFFFFF;"/><path d="M270.793,290.575c-8.259,0-14.627-21.463-24.083-59.009c-9.784-38.819-9.726-108.744-50.406-100.818   c-38.364,7.482-88.77,67.225-88.77,67.225l12.022,15.678c0,0,24.836-19.419,33.115-9.719   c8.279,9.719,39.869,126.966,50.406,148.604c9.225,18.994,34.602,44.083,62.448,26.148   c27.848-17.914,120.381-96.324,136.938-188.926c16.558-92.583-111.368-73.203-124.896,7.463   c33.85-20.19,51.932,8.215,34.602,40.324C294.877,269.651,279.073,290.575,270.793,290.575z" style="fill:#FFFFFF;"/><path d="M358.479,128.134c28.472,0.002,51.628,18.881,43.983,61.624   c-16.557,92.602-109.09,171.012-136.938,188.926c-6.734,4.337-13.322,6.158-19.574,6.158c-19.601,0-35.88-17.905-42.875-32.307   c-10.537-21.638-42.126-138.885-50.406-148.604c-1.655-1.939-3.969-2.714-6.617-2.714c-10.597,0-26.499,12.433-26.499,12.433   l-12.022-15.678c0,0,50.406-59.742,88.77-67.225c2.153-0.419,4.185-0.621,6.117-0.621c34.578,0.008,35.022,64.673,44.289,101.438   c9.456,37.546,15.824,59.009,24.083,59.009c8.28,0,24.084-20.924,41.375-53.03c13.297-24.636,5.749-47.092-13.775-47.09   c-5.922,0-12.948,2.067-20.826,6.766C284.85,153.796,325.279,128.132,358.479,128.134 M358.48,118.257l-0.001,9.877L358.48,118.257   c-19.187-0.001-39.69,7.416-56.255,20.35c-18.436,14.395-30.652,34.631-34.4,56.98c-0.637,3.796,0.99,7.616,4.168,9.788   c1.676,1.146,3.623,1.723,5.574,1.723c1.747,0,3.497-0.463,5.059-1.395c7.442-4.439,12.683-5.372,15.768-5.372   c0.001,0,0.001,0,0.002,0c3.935,0,6.712,1.448,8.489,4.427c2.848,4.771,3.663,14.992-3.408,28.094   c-16.102,29.897-26.778,42.424-31.577,46.483c-1.144-1.991-2.901-5.722-5.195-12.569c-3.346-9.993-6.983-23.983-10.416-37.613   c-2.042-8.1-3.659-17.766-5.372-27.999c-2.998-17.915-6.098-36.439-12.155-51.317c-7.991-19.629-20.217-29.583-36.338-29.587   c-2.583,0-5.274,0.27-8.008,0.803c-17.717,3.456-39.094,16.515-63.539,38.816c-17.67,16.12-30.359,31.104-30.891,31.734   c-2.992,3.546-3.113,8.697-0.289,12.379l12.022,15.678c1.604,2.091,3.977,3.455,6.592,3.788c0.416,0.053,0.832,0.079,1.247,0.079   c2.193,0,4.337-0.73,6.083-2.096c5.372-4.181,15.065-9.926,19.916-10.316c4.442,8.444,15.928,45.733,24.423,73.313   c9.784,31.764,19.025,61.767,24.219,72.432c9.149,18.84,28.704,37.859,51.754,37.859c8.572,0,16.957-2.602,24.921-7.731   c13.435-8.642,44.323-32.762,74.85-68.326c16.392-19.096,30.157-38.627,40.915-58.052c12.926-23.337,21.521-46.591,25.548-69.114   c5.146-28.776-2.944-45.775-10.639-54.968C391.687,124.748,376.392,118.258,358.48,118.257L358.48,118.257z" style="fill:#00596F;"/><path d="M364.039,478.061H147.415c-62.448,0-113.253-50.818-113.253-113.283V148.179   c0-62.454,50.805-113.263,113.253-113.263h216.624c62.459,0,113.272,50.81,113.272,113.263v216.599   C477.312,427.242,426.498,478.061,364.039,478.061z M147.415,44.818c-56.988,0-103.351,46.367-103.351,103.36v216.599   c0,57.004,46.363,103.381,103.351,103.381h216.624c56.998,0,103.37-46.377,103.37-103.381V148.179   c0-56.993-46.372-103.36-103.37-103.36H147.415z" style="fill:#00596F;"/></g><g id="Layer_1"/></svg>