<?xml version="1.0" ?><!DOCTYPE svg  PUBLIC '-//W3C//DTD SVG 1.1//EN'  'http://www.w3.org/Graphics/SVG/1.1/DTD/svg11.dtd'><svg height="512px" style="enable-background:new 0 0 512 512;" version="1.1" viewBox="0 0 512 512" width="512px" xml:space="preserve" xmlns="http://www.w3.org/2000/svg" xmlns:xlink="http://www.w3.org/1999/xlink"><g id="yahoo_mail__x2C_"><g><path d="M492.871,374.968c0,65.432-53.089,118.482-118.585,118.482H137.149    c-65.477,0-118.546-53.051-118.546-118.482V138.009c0-65.451,53.069-118.483,118.546-118.483h237.137    c65.496,0,118.585,53.032,118.585,118.483V374.968z" style="fill:#91009A;"/><path d="M222.47,277.93c0.984,6.808,1.852,46.958-0.984,50.004c-5.712,6.056-31.784,4.455-38.1,4.897    l-2.161,12.439c11.488,0.347,48.867-0.927,60.485-0.927c22.905,0,63.026-0.115,68.7,0.31l0.694-13.036    c-5.79-0.983-37.379-0.116-41.74-1.118c-0.966-6.325-2.026-48.597-1.062-52.956c4.361-12.625,70.727-64.036,78.001-66.003    c1.642-0.328,4.073-0.868,6.833-1.485h21.381l3.338-4.917c0.059-0.039,0.193-0.058,0.252-0.058l8.278-11.975    c-0.115,0-0.309-0.02-0.405-0.02l0.869-1.312H270.984l4.458,18.282h31.63l-53.205,48.17    c-10.865-15.04-36.319-46.377-54.073-72.295h39.831v-13.923l0.463-3.066c-0.115-0.038-0.347-0.058-0.463-0.058v-1.253H107.526    v18.3h39.175C161.909,197.848,220.058,270.679,222.47,277.93z" style="fill:#FFFFFF;"/><path d="M365.043,228.876l0.481,82.569l17.755,1.408l20.668-80.101    C400.492,232.637,369.114,229.667,365.043,228.876z" style="fill:#FFFFFF;"/><polygon points="381.253,345.347 384.09,326.198 373.861,325.696 362.457,324.289 362.553,343.843     371.546,344.634   " style="fill:#FFFFFF;"/><path d="M222.47,277.93c0.984,6.808,1.852,46.958-0.984,50.004c-5.712,6.056-31.784,4.455-38.1,4.897    l-2.161,12.439c11.488,0.347,48.867-0.927,60.485-0.927c22.905,0,63.026-0.115,68.7,0.31l0.694-13.036    c-5.79-0.983-37.379-0.116-41.74-1.118c-0.966-6.325-2.026-48.597-1.062-52.956c4.361-12.625,70.727-64.036,78.001-66.003    c1.642-0.328,4.073-0.868,6.833-1.485h21.381l3.338-4.917c0.059-0.039,0.193-0.058,0.252-0.058l8.278-11.975    c-0.115,0-0.309-0.02-0.405-0.02l0.869-1.312H270.984l4.458,18.282h31.63l-53.205,48.17    c-10.865-15.04-36.319-46.377-54.073-72.295h39.831v-13.923l0.463-3.066c-0.115-0.038-0.347-0.058-0.463-0.058v-1.253H107.526    v18.3h39.175C161.909,197.848,220.058,270.679,222.47,277.93z" style="fill:#FFFFFF;"/><path d="M365.043,228.876l0.481,82.569l17.755,1.408l20.668-80.101    C400.492,232.637,369.114,229.667,365.043,228.876z" style="fill:#FFFFFF;"/><polygon points="381.253,345.347 384.09,326.198 373.861,325.696 362.457,324.289 362.553,343.843     371.546,344.634   " style="fill:#FFFFFF;"/><path d="M239.625,167.63v1.253c0.116,0,0.348,0.02,0.463,0.058l-0.463,3.066v13.923h-39.831    c17.754,25.918,43.208,57.255,54.073,72.295l53.205-48.17h-31.63l-4.458-18.282H386.85l-0.869,1.312c0.097,0,0.29,0.02,0.405,0.02    l-8.278,11.975c-0.059,0-0.193,0.02-0.252,0.058l-3.338,4.917h-21.381c-2.76,0.617-5.191,1.157-6.833,1.485    c-7.274,1.967-73.64,53.378-78.001,66.003c-0.965,4.359,0.096,46.631,1.062,52.956c4.361,1.002,35.95,0.135,41.74,1.118    l-0.694,13.036c-3.679-0.275-21.833-0.324-40.391-0.324c-10.066,0-20.254,0.015-28.31,0.015c-10.226,0-40.41,0.986-55.33,0.986    c-2.031,0-3.779-0.018-5.155-0.06l2.161-12.439c6.316-0.442,32.387,1.158,38.1-4.897c2.836-3.046,1.968-43.196,0.984-50.004    c-2.413-7.251-60.562-80.082-75.769-92h-39.175v-18.3H239.625 M239.625,157.753H107.526c-5.455,0-9.877,4.422-9.877,9.877v18.3    c0,5.455,4.422,9.877,9.877,9.877h35.497c7.066,6.594,21.183,22.616,37.465,42.591c17.757,21.784,29.606,37.804,32.372,42.399    c0.749,8.003,1.003,31.597,0.108,40.499c-1.461,0.372-3.898,0.822-7.796,1.133c-5.26,0.417-10.942,0.423-15.508,0.427    c-2.956,0.003-5.291,0.005-6.968,0.123c-4.533,0.317-8.264,3.686-9.042,8.162l-2.161,12.439c-0.49,2.82,0.268,5.716,2.078,7.934    c1.81,2.219,4.494,3.543,7.355,3.629c1.434,0.044,3.217,0.064,5.453,0.064c8.277,0,21.228-0.3,32.654-0.565    c9.338-0.216,18.158-0.421,22.675-0.421c3.806,0,8.087-0.003,12.606-0.007c5.048-0.003,10.393-0.008,15.703-0.008    c8.829,0,35.696,0,39.653,0.297c0.246,0.019,0.492,0.027,0.737,0.027c2.394,0,4.714-0.869,6.523-2.461    c1.994-1.754,3.198-4.238,3.34-6.891l0.694-13.036c0.267-5.01-3.264-9.423-8.21-10.263c-3.504-0.596-10.969-0.65-22.86-0.691    c-3.395-0.012-7.687-0.026-11.332-0.081c-0.585-12.462-0.99-34.697-0.637-40.759c2.178-3.338,11.358-13.275,34.087-31.793    c17.769-14.477,33.17-25.459,37.167-27.522c1.422-0.297,3.18-0.685,5.044-1.101h20.291c3.273,0,6.334-1.622,8.172-4.33    l2.402-3.539c0.417-0.417,0.799-0.874,1.141-1.367l8.278-11.975c0.65-0.941,1.121-1.97,1.41-3.04    c1.18-2.737,1.07-5.899-0.369-8.581c-1.721-3.205-5.064-5.205-8.702-5.205H270.984c-3.031,0-5.895,1.392-7.768,3.776    c-1.872,2.384-2.547,5.496-1.828,8.441l4.458,18.282c1.079,4.424,5.042,7.537,9.596,7.537h6.005l-26.154,23.679    c-3.028-3.984-6.485-8.466-10.22-13.308c-8.032-10.414-17.427-22.593-26.141-34.497h20.694c5.455,0,9.877-4.422,9.877-9.877    v-13.182l0.352-2.333c0.285-1.887,0.015-3.746-0.701-5.397C248.009,160.831,244.176,157.753,239.625,157.753L239.625,157.753z" style="fill:#49004D;"/><path d="M365.043,228.876c4.071,0.791,35.449,3.761,38.904,3.876l-20.668,80.101l-17.755-1.408    L365.043,228.876 M365.039,218.998c-2.282,0-4.516,0.792-6.304,2.275c-2.277,1.889-3.587,4.701-3.569,7.661l0.481,82.569    c0.03,5.13,3.982,9.383,9.096,9.788l17.755,1.408c0.264,0.021,0.527,0.031,0.788,0.031c4.467,0,8.425-3.02,9.557-7.409    l20.668-80.101c0.749-2.901,0.14-5.986-1.655-8.385s-4.583-3.854-7.577-3.954c-3.489-0.121-34.048-3.078-37.355-3.701    C366.297,219.058,365.666,218.998,365.039,218.998L365.039,218.998z" style="fill:#49004D;"/><path d="M362.457,324.289l11.404,1.407l10.229,0.502l-2.837,19.148l-9.707-0.713l-8.993-0.791    L362.457,324.289 M362.457,314.412c-2.404,0-4.742,0.878-6.561,2.493c-2.122,1.886-3.33,4.594-3.316,7.433l0.096,19.553    c0.025,5.102,3.93,9.344,9.012,9.791l8.993,0.791c0.047,0.004,0.095,0.008,0.142,0.012l9.707,0.713    c0.245,0.018,0.489,0.026,0.732,0.026c4.854,0,9.039-3.556,9.762-8.43l2.837-19.148c0.408-2.758-0.367-5.56-2.136-7.714    c-1.77-2.155-4.366-3.462-7.15-3.599l-9.865-0.484l-11.042-1.362C363.263,314.437,362.858,314.412,362.457,314.412    L362.457,314.412z" style="fill:#49004D;"/><path d="M364.039,478.061H147.415c-62.448,0-113.253-50.818-113.253-113.283V148.179    c0-62.454,50.805-113.263,113.253-113.263h216.624c62.459,0,113.272,50.81,113.272,113.263v216.599    C477.312,427.242,426.498,478.061,364.039,478.061z M147.415,44.818c-56.988,0-103.351,46.367-103.351,103.36v216.599    c0,57.004,46.363,103.381,103.351,103.381h216.624c56.998,0,103.37-46.377,103.37-103.381V148.179    c0-56.993-46.372-103.36-103.37-103.36H147.415z" style="fill:#49004D;"/></g></g><g id="Layer_1"/></svg>