<?xml version="1.0" ?><!DOCTYPE svg  PUBLIC '-//W3C//DTD SVG 1.1//EN'  'http://www.w3.org/Graphics/SVG/1.1/DTD/svg11.dtd'><svg height="512px" style="enable-background:new 0 0 512 512;" version="1.1" viewBox="0 0 512 512" width="512px" xml:space="preserve" xmlns="http://www.w3.org/2000/svg" xmlns:xlink="http://www.w3.org/1999/xlink"><g id="windows__x2C_"><g><path d="M492.871,374.968c0,65.451-53.089,118.482-118.565,118.482H137.168    c-65.497,0-118.566-53.031-118.566-118.482V138.009c0-65.432,53.069-118.483,118.566-118.483h237.137    c65.477,0,118.565,53.051,118.565,118.483V374.968z" style="fill:#00B4F0;"/><path d="M107.526,348.433c20.727-8.177,37.477-11.454,51.564-11.454c23.215,0,39.314,8.773,54.502,18.667    c5.616-18.687,24.759-82.634,28.387-94.816c-4.11-2.487-8.24-4.993-12.621-7.288c-10.208-5.149-24.45-10.472-40.042-10.472    c-1.775,0-3.537,0.058-5.313,0.212c-15.65,1.272-29.892,5.188-39.908,8.639c-2.952,1.042-6.002,2.16-9.128,3.414L107.526,348.433z    " style="fill:#FFFFFF;"/><path d="M369.48,281.825c-19.992,7.02-37.225,9.661-51.795,9.661c-31.706,0-50.984-12.38-59.302-18.88    l-27.365,92.951c-0.039-0.039,31.977,19.283,56.002,19.283c15.206,0,33.384-3.645,56.099-12.824L369.48,281.825z" style="fill:#FFFFFF;"/><path d="M275.037,145.549c0,0-19.646-11.532-33.327-14.945c-6.522-1.504-13.914-2.469-22.077-2.469    c-0.115,0-0.212,0-0.308,0c-13.914,0.27-30.569,3.567-51.067,11.744l-27.017,92.873c21.054-8.388,38.113-12.11,52.457-12.11    c0.27,0,0.5,0,0.732,0c22.25,0.212,38.017,8.928,52.684,18.436c5.615-18.628,22.288-74.591,27.923-93.471V145.549z" style="fill:#FFFFFF;"/><path d="M292.328,157.602l-27.713,93.875c0.078,0.078,0.193,0.135,0.291,0.193    c15.244,9.969,35.063,18.044,58.974,18.044c15.805,0,33.366-3.529,52.567-12.376c0-0.038,0-0.097,0-0.135    c0.039,0,0.097-0.039,0.173-0.059l27.327-92.158c-20.187,8.62-37.863,11.802-52.972,11.802    C320.928,176.79,301.09,164.255,292.328,157.602z" style="fill:#FFFFFF;"/><path d="M107.526,348.433c20.727-8.177,37.477-11.454,51.564-11.454c23.215,0,39.314,8.773,54.502,18.667    c5.616-18.687,24.759-82.634,28.387-94.816c-4.11-2.487-8.24-4.993-12.621-7.288c-10.208-5.149-24.45-10.472-40.042-10.472    c-1.775,0-3.537,0.058-5.313,0.212c-15.65,1.272-29.892,5.188-39.908,8.639c-2.952,1.042-6.002,2.16-9.128,3.414L107.526,348.433z    " style="fill:#FFFFFF;"/><path d="M369.48,281.825c-19.992,7.02-37.225,9.661-51.795,9.661c-31.706,0-50.984-12.38-59.302-18.88    l-27.365,92.951c-0.039-0.039,31.977,19.283,56.002,19.283c15.206,0,33.384-3.645,56.099-12.824L369.48,281.825z" style="fill:#FFFFFF;"/><path d="M275.037,145.549c0,0-19.646-11.532-33.327-14.945c-6.522-1.504-13.914-2.469-22.077-2.469    c-0.115,0-0.212,0-0.308,0c-13.914,0.27-30.569,3.567-51.067,11.744l-27.017,92.873c21.054-8.388,38.113-12.11,52.457-12.11    c0.27,0,0.5,0,0.732,0c22.25,0.212,38.017,8.928,52.684,18.436c5.615-18.628,22.288-74.591,27.923-93.471V145.549z" style="fill:#FFFFFF;"/><path d="M292.328,157.602l-27.713,93.875c0.078,0.078,0.193,0.135,0.291,0.193    c15.244,9.969,35.063,18.044,58.974,18.044c15.805,0,33.366-3.529,52.567-12.376c0-0.038,0-0.097,0-0.135    c0.039,0,0.097-0.039,0.173-0.059l27.327-92.158c-20.187,8.62-37.863,11.802-52.972,11.802    C320.928,176.79,301.09,164.255,292.328,157.602z" style="fill:#FFFFFF;"/><path d="M189.316,243.069c15.593,0,29.834,5.323,40.042,10.472c4.38,2.295,8.511,4.801,12.621,7.288    c-3.627,12.183-22.771,76.13-28.387,94.816c-15.188-9.894-31.287-18.667-54.502-18.667c-14.087,0-30.838,3.277-51.564,11.454    l27.442-93.098c3.126-1.254,6.176-2.372,9.128-3.414c10.016-3.452,24.258-7.367,39.908-8.639    C185.779,243.127,187.541,243.069,189.316,243.069 M189.316,233.192c-2.207,0-4.215,0.081-6.138,0.247    c-17.068,1.391-32.422,5.739-42.3,9.144c-0.022,0.008-0.045,0.016-0.068,0.023c-3.633,1.282-6.658,2.414-9.519,3.561    c-2.806,1.125-4.942,3.474-5.797,6.375L98.052,345.64c-1.067,3.621,0.022,7.533,2.808,10.081c1.854,1.695,4.242,2.589,6.667,2.589    c1.22,0,2.448-0.226,3.623-0.689c18.362-7.243,34.043-10.765,47.94-10.765c21.144,0,35.855,8.431,49.111,17.066    c1.625,1.058,3.501,1.601,5.392,1.601c1.144,0,2.292-0.198,3.393-0.602c2.922-1.068,5.17-3.452,6.065-6.433    c5.896-19.618,24.883-83.05,28.394-94.841c1.283-4.309-0.506-8.94-4.353-11.269l-0.204-0.123    c-4.114-2.49-8.369-5.065-12.947-7.464c-0.045-0.023-0.09-0.047-0.136-0.07C218.638,237.072,203.669,233.192,189.316,233.192    L189.316,233.192z M258.384,272.606c8.317,6.5,27.596,18.88,59.302,18.88c14.57,0,31.803-2.642,51.795-9.661l-26.36,90.191    c-22.715,9.18-40.893,12.824-56.099,12.824c-23.994,0-55.959-19.272-56.002-19.283L258.384,272.606 M369.48,281.825h0.005     M231.019,365.558L231.019,365.558L231.019,365.558 M258.383,262.729c-1.012,0-2.029,0.155-3.018,0.473    c-3.115,0.999-5.533,3.477-6.457,6.615l-27.365,92.951c-0.763,2.592-0.431,5.383,0.919,7.724c0.877,1.521,2.133,2.764,3.625,3.624    l0.018,0.011c5.842,3.438,36.234,20.591,60.915,20.591c17.688,0,37.248-4.43,59.8-13.544c2.802-1.132,4.932-3.485,5.779-6.387    l26.274-89.896c0.314-0.966,0.485-1.996,0.485-3.066c0-5.366-4.277-9.733-9.609-9.873c-0.091-0.003-0.182-0.004-0.271-0.004    c-0.2,0-0.4,0.006-0.601,0.018c-1.009,0.061-1.977,0.273-2.882,0.614c-17.126,5.991-33.38,9.029-48.312,9.029    c-26.234,0-43.422-9.128-53.22-16.785C262.706,263.449,260.56,262.729,258.383,262.729L258.383,262.729z M219.633,128.136    c8.163,0,15.555,0.964,22.077,2.469c13.682,3.413,33.327,14.945,33.327,14.945v0.058c-5.636,18.879-22.308,74.842-27.923,93.471    c-14.667-9.507-30.434-18.224-52.684-18.436c-0.232,0-0.463,0-0.732,0c-14.344,0-31.403,3.722-52.457,12.11l27.017-92.873    c20.499-8.176,37.153-11.474,51.067-11.744C219.42,128.136,219.518,128.136,219.633,128.136 M219.633,118.259h-0.308    c-0.064,0-0.128,0-0.191,0.002c-16.505,0.32-34.344,4.391-54.535,12.444c-2.826,1.127-4.975,3.494-5.825,6.416l-27.017,92.873    c-1.054,3.624,0.049,7.532,2.843,10.07c1.851,1.681,4.229,2.566,6.642,2.566c1.23,0,2.47-0.23,3.654-0.702    c19.269-7.677,35.232-11.409,48.801-11.409h0.684c20.033,0.203,34.38,8.433,47.361,16.847c1.62,1.05,3.49,1.589,5.373,1.589    c1.146,0,2.296-0.199,3.4-0.604c2.917-1.07,5.16-3.449,6.056-6.423c4.332-14.371,15.314-51.194,22.581-75.561l5.35-17.935    c0.274-0.917,0.413-1.869,0.413-2.825v-0.058c0-3.503-1.855-6.745-4.877-8.518c-0.853-0.5-21.045-12.295-35.937-16.01    c-0.057-0.014-0.113-0.028-0.17-0.041C236.101,119.174,227.926,118.259,219.633,118.259L219.633,118.259z M292.328,157.602    c8.762,6.653,28.6,19.188,58.647,19.188c15.108,0,32.785-3.182,52.972-11.802l-27.327,92.158c-0.076,0.02-0.134,0.059-0.173,0.059    c0,0.038,0,0.097,0,0.135c-19.201,8.847-36.763,12.376-52.567,12.376c-23.91,0-43.729-8.075-58.974-18.044    c-0.098-0.058-0.213-0.116-0.291-0.193L292.328,157.602 M292.327,147.725c-1.033,0-2.072,0.162-3.079,0.493    c-3.084,1.012-5.474,3.475-6.393,6.588l-27.713,93.875c-1.028,3.481-0.063,7.245,2.511,9.803c0.771,0.766,1.51,1.264,2.056,1.59    c19.886,12.952,41.474,19.519,64.171,19.519c18.494,0,37.571-4.469,56.7-13.282c1.296-0.597,2.419-1.453,3.32-2.489    c0.998-1.089,1.756-2.404,2.189-3.867l27.327-92.157c1.088-3.669-0.042-7.637-2.899-10.183c-1.844-1.642-4.192-2.502-6.572-2.502    c-1.309,0-2.627,0.26-3.877,0.794c-17.106,7.305-33.624,11.008-49.093,11.008c-24.839,0-42.354-9.341-52.675-17.177    C296.561,148.414,294.457,147.725,292.327,147.725L292.327,147.725z" style="fill:#0087B4;"/><path d="M364.039,478.061H147.415c-62.448,0-113.253-50.818-113.253-113.283V148.179    c0-62.454,50.805-113.263,113.253-113.263h216.624c62.459,0,113.272,50.81,113.272,113.263v216.599    C477.312,427.242,426.498,478.061,364.039,478.061z M147.415,44.818c-56.988,0-103.351,46.367-103.351,103.36v216.599    c0,57.004,46.363,103.381,103.351,103.381h216.624c56.998,0,103.37-46.377,103.37-103.381V148.179    c0-56.993-46.372-103.36-103.37-103.36H147.415z" style="fill:#0087B4;"/></g></g><g id="Layer_1"/></svg>